<svg width="394" height="80" viewBox="0 0 394 80" fill="none" xmlns="http://www.w3.org/2000/svg">
<path d="M35.6419 1C33.7107 15.4005 24.6759 20.7402 1.5 22.9529V56.2276C28.4306 57.818 35.3723 62.5528 35.6419 76.7407H358.094C359.854 61.11 367.389 56.4126 393.5 55.4386V22.3021C366.734 20.6865 357.608 16.7492 358.094 1H35.6419Z" fill="#FFDA7C"/>
<path d="M1 23C24.5462 20.8162 33.6969 15.5036 35.6419 1H358.094C357.608 16.7492 366.734 20.6865 393.5 22.3021V55.4386C367.389 56.4126 359.854 61.11 358.094 76.7407H35.6419C35.3723 62.5528 28.4306 57.818 1.5 56.2276V22.3021" stroke="black"/>
<rect x="12.1172" y="9.38965" width="370.768" height="58.9624" fill="#FFDA7C" stroke="black"/>
<path d="M78.3958 52C77.9118 52 77.5378 51.879 77.2738 51.637C77.0318 51.373 76.9108 50.999 76.9108 50.515V30.22C76.9108 29.736 77.0318 29.373 77.2738 29.131C77.5378 28.867 77.9118 28.735 78.3958 28.735H86.2168C87.8228 28.735 89.1758 28.977 90.2758 29.461C91.3978 29.923 92.2558 30.605 92.8498 31.507C93.4438 32.409 93.7408 33.509 93.7408 34.807C93.7408 36.259 93.3118 37.469 92.4538 38.437C91.6178 39.405 90.4738 40.043 89.0218 40.351V39.889C90.6718 40.087 91.9588 40.681 92.8828 41.671C93.8288 42.661 94.3018 43.97 94.3018 45.598C94.3018 47.666 93.6308 49.25 92.2888 50.35C90.9468 51.45 89.0548 52 86.6128 52H78.3958ZM79.5508 49.822H86.3488C88.1088 49.822 89.4288 49.47 90.3088 48.766C91.1888 48.062 91.6288 46.995 91.6288 45.565C91.6288 44.113 91.1888 43.046 90.3088 42.364C89.4288 41.66 88.1088 41.308 86.3488 41.308H79.5508V49.822ZM79.5508 39.13H85.8208C87.5368 39.13 88.8348 38.778 89.7148 38.074C90.6168 37.37 91.0678 36.358 91.0678 35.038C91.0678 33.674 90.6168 32.651 89.7148 31.969C88.8348 31.265 87.5368 30.913 85.8208 30.913H79.5508V39.13ZM98.4588 52.231C98.1068 52.231 97.8208 52.154 97.6008 52C97.4028 51.824 97.2818 51.604 97.2378 51.34C97.2158 51.054 97.2818 50.735 97.4358 50.383L106.511 29.725C106.709 29.285 106.94 28.977 107.204 28.801C107.49 28.603 107.798 28.504 108.128 28.504C108.458 28.504 108.755 28.603 109.019 28.801C109.305 28.977 109.536 29.285 109.712 29.725L118.82 50.383C118.996 50.735 119.062 51.054 119.018 51.34C118.996 51.626 118.886 51.846 118.688 52C118.49 52.154 118.215 52.231 117.863 52.231C117.467 52.231 117.148 52.132 116.906 51.934C116.664 51.714 116.466 51.406 116.312 51.01L113.87 45.367L115.19 46.06H101L102.353 45.367L99.9438 51.01C99.7458 51.428 99.5368 51.736 99.3168 51.934C99.0968 52.132 98.8108 52.231 98.4588 52.231ZM108.095 31.903L102.782 44.41L101.99 43.783H114.2L113.474 44.41L108.161 31.903H108.095ZM132.673 52.297C130.385 52.297 128.427 51.813 126.799 50.845C125.171 49.877 123.917 48.502 123.037 46.72C122.179 44.938 121.75 42.815 121.75 40.351C121.75 38.503 121.992 36.853 122.476 35.401C122.982 33.927 123.697 32.684 124.621 31.672C125.567 30.638 126.722 29.846 128.086 29.296C129.45 28.724 130.979 28.438 132.673 28.438C134.037 28.438 135.335 28.636 136.567 29.032C137.799 29.406 138.866 29.967 139.768 30.715C140.054 30.935 140.241 31.188 140.329 31.474C140.439 31.738 140.45 32.002 140.362 32.266C140.296 32.508 140.164 32.717 139.966 32.893C139.79 33.047 139.57 33.124 139.306 33.124C139.042 33.124 138.745 33.014 138.415 32.794C137.623 32.156 136.754 31.683 135.808 31.375C134.862 31.067 133.839 30.913 132.739 30.913C131.001 30.913 129.527 31.287 128.317 32.035C127.107 32.761 126.194 33.828 125.578 35.236C124.962 36.644 124.654 38.349 124.654 40.351C124.654 42.353 124.962 44.069 125.578 45.499C126.194 46.907 127.107 47.985 128.317 48.733C129.527 49.459 131.001 49.822 132.739 49.822C133.817 49.822 134.84 49.668 135.808 49.36C136.776 49.03 137.667 48.546 138.481 47.908C138.811 47.688 139.108 47.589 139.372 47.611C139.636 47.611 139.856 47.688 140.032 47.842C140.208 47.996 140.329 48.194 140.395 48.436C140.483 48.678 140.483 48.931 140.395 49.195C140.329 49.459 140.164 49.69 139.9 49.888C138.976 50.68 137.887 51.285 136.633 51.703C135.401 52.099 134.081 52.297 132.673 52.297ZM146.165 52.231C145.725 52.231 145.384 52.11 145.142 51.868C144.922 51.604 144.812 51.252 144.812 50.812V29.89C144.812 29.428 144.922 29.087 145.142 28.867C145.384 28.625 145.725 28.504 146.165 28.504C146.605 28.504 146.935 28.625 147.155 28.867C147.397 29.087 147.518 29.428 147.518 29.89V39.295H147.584L158.342 29.263C158.606 28.999 158.87 28.812 159.134 28.702C159.398 28.57 159.684 28.504 159.992 28.504C160.41 28.504 160.707 28.603 160.883 28.801C161.081 28.999 161.158 29.241 161.114 29.527C161.07 29.813 160.916 30.088 160.652 30.352L149.399 40.78L149.432 39.328L161.18 50.185C161.51 50.493 161.686 50.812 161.708 51.142C161.73 51.45 161.631 51.714 161.411 51.934C161.213 52.132 160.905 52.231 160.487 52.231C160.157 52.231 159.871 52.154 159.629 52C159.409 51.868 159.156 51.659 158.87 51.373L147.584 41.044H147.518V50.812C147.518 51.252 147.408 51.604 147.188 51.868C146.968 52.11 146.627 52.231 146.165 52.231ZM181.007 52.231C180.589 52.231 180.259 52.11 180.017 51.868C179.775 51.604 179.654 51.252 179.654 50.812V31.078H172.229C171.833 31.078 171.525 30.968 171.305 30.748C171.085 30.528 170.975 30.242 170.975 29.89C170.975 29.516 171.085 29.23 171.305 29.032C171.525 28.834 171.833 28.735 172.229 28.735H189.818C190.214 28.735 190.522 28.834 190.742 29.032C190.962 29.23 191.072 29.516 191.072 29.89C191.072 30.264 190.962 30.561 190.742 30.781C190.522 30.979 190.214 31.078 189.818 31.078H182.393V50.812C182.393 51.252 182.272 51.604 182.03 51.868C181.81 52.11 181.469 52.231 181.007 52.231ZM202.114 52.297C199.958 52.297 198.077 51.813 196.471 50.845C194.887 49.855 193.655 48.469 192.775 46.687C191.917 44.905 191.488 42.793 191.488 40.351C191.488 38.503 191.73 36.853 192.214 35.401C192.72 33.927 193.435 32.684 194.359 31.672C195.283 30.638 196.394 29.846 197.692 29.296C199.012 28.724 200.486 28.438 202.114 28.438C204.314 28.438 206.206 28.922 207.79 29.89C209.396 30.858 210.628 32.233 211.486 34.015C212.366 35.775 212.806 37.876 212.806 40.318C212.806 42.166 212.553 43.827 212.047 45.301C211.541 46.775 210.826 48.029 209.902 49.063C208.978 50.097 207.856 50.9 206.536 51.472C205.238 52.022 203.764 52.297 202.114 52.297ZM202.114 49.888C203.786 49.888 205.194 49.514 206.338 48.766C207.504 48.018 208.395 46.929 209.011 45.499C209.627 44.069 209.935 42.353 209.935 40.351C209.935 37.337 209.253 35.005 207.889 33.355C206.547 31.683 204.622 30.847 202.114 30.847C200.486 30.847 199.089 31.221 197.923 31.969C196.779 32.717 195.899 33.806 195.283 35.236C194.667 36.644 194.359 38.349 194.359 40.351C194.359 43.343 195.041 45.686 196.405 47.38C197.769 49.052 199.672 49.888 202.114 49.888ZM227.505 52.231C227.065 52.231 226.724 52.11 226.482 51.868C226.262 51.604 226.152 51.252 226.152 50.812V29.923C226.152 29.461 226.262 29.109 226.482 28.867C226.724 28.625 227.065 28.504 227.505 28.504C227.945 28.504 228.275 28.625 228.495 28.867C228.737 29.109 228.858 29.461 228.858 29.923V39.031H242.817V29.923C242.817 29.461 242.927 29.109 243.147 28.867C243.389 28.625 243.73 28.504 244.17 28.504C244.61 28.504 244.94 28.625 245.16 28.867C245.402 29.109 245.523 29.461 245.523 29.923V50.812C245.523 51.252 245.402 51.604 245.16 51.868C244.94 52.11 244.61 52.231 244.17 52.231C243.73 52.231 243.389 52.11 243.147 51.868C242.927 51.604 242.817 51.252 242.817 50.812V41.374H228.858V50.812C228.858 51.252 228.748 51.604 228.528 51.868C228.308 52.11 227.967 52.231 227.505 52.231ZM261.025 52.297C258.869 52.297 256.988 51.813 255.382 50.845C253.798 49.855 252.566 48.469 251.686 46.687C250.828 44.905 250.399 42.793 250.399 40.351C250.399 38.503 250.641 36.853 251.125 35.401C251.631 33.927 252.346 32.684 253.27 31.672C254.194 30.638 255.305 29.846 256.603 29.296C257.923 28.724 259.397 28.438 261.025 28.438C263.225 28.438 265.117 28.922 266.701 29.89C268.307 30.858 269.539 32.233 270.397 34.015C271.277 35.775 271.717 37.876 271.717 40.318C271.717 42.166 271.464 43.827 270.958 45.301C270.452 46.775 269.737 48.029 268.813 49.063C267.889 50.097 266.767 50.9 265.447 51.472C264.149 52.022 262.675 52.297 261.025 52.297ZM261.025 49.888C262.697 49.888 264.105 49.514 265.249 48.766C266.415 48.018 267.306 46.929 267.922 45.499C268.538 44.069 268.846 42.353 268.846 40.351C268.846 37.337 268.164 35.005 266.8 33.355C265.458 31.683 263.533 30.847 261.025 30.847C259.397 30.847 258 31.221 256.834 31.969C255.69 32.717 254.81 33.806 254.194 35.236C253.578 36.644 253.27 38.349 253.27 40.351C253.27 43.343 253.952 45.686 255.316 47.38C256.68 49.052 258.583 49.888 261.025 49.888ZM277.874 52.231C277.478 52.231 277.17 52.121 276.95 51.901C276.73 51.659 276.62 51.329 276.62 50.911V29.824C276.62 29.384 276.73 29.054 276.95 28.834C277.17 28.614 277.478 28.504 277.874 28.504C278.226 28.504 278.501 28.581 278.699 28.735C278.919 28.867 279.117 29.098 279.293 29.428L288.335 46.456H287.345L296.354 29.428C296.53 29.098 296.717 28.867 296.915 28.735C297.113 28.581 297.399 28.504 297.773 28.504C298.147 28.504 298.444 28.614 298.664 28.834C298.884 29.054 298.994 29.384 298.994 29.824V50.911C298.994 51.329 298.884 51.659 298.664 51.901C298.466 52.121 298.158 52.231 297.74 52.231C297.344 52.231 297.036 52.121 296.816 51.901C296.596 51.659 296.486 51.329 296.486 50.911V32.365H297.278L289.028 47.842C288.874 48.128 288.709 48.337 288.533 48.469C288.379 48.579 288.148 48.634 287.84 48.634C287.532 48.634 287.29 48.568 287.114 48.436C286.938 48.304 286.784 48.106 286.652 47.842L278.303 32.332H279.095V50.911C279.095 51.329 278.985 51.659 278.765 51.901C278.567 52.121 278.27 52.231 277.874 52.231ZM306.27 52C305.786 52 305.412 51.879 305.148 51.637C304.906 51.373 304.785 50.999 304.785 50.515V30.22C304.785 29.736 304.906 29.373 305.148 29.131C305.412 28.867 305.786 28.735 306.27 28.735H318.546C318.92 28.735 319.206 28.834 319.404 29.032C319.602 29.23 319.701 29.505 319.701 29.857C319.701 30.231 319.602 30.517 319.404 30.715C319.206 30.913 318.92 31.012 318.546 31.012H307.425V39.064H317.853C318.227 39.064 318.513 39.163 318.711 39.361C318.909 39.537 319.008 39.812 319.008 40.186C319.008 40.56 318.909 40.846 318.711 41.044C318.513 41.242 318.227 41.341 317.853 41.341H307.425V49.723H318.546C318.92 49.723 319.206 49.822 319.404 50.02C319.602 50.218 319.701 50.493 319.701 50.845C319.701 51.219 319.602 51.505 319.404 51.703C319.206 51.901 318.92 52 318.546 52H306.27Z" fill="#291F32"/>
</svg>
