<svg width="672" height="131" viewBox="0 0 672 131" fill="none" xmlns="http://www.w3.org/2000/svg">
<rect y="17.1279" width="670.139" height="113.673" rx="10" fill="url(#paint0_linear_110_162)"/>
<g filter="url(#filter0_f_110_162)">
<path d="M339.241 12.6316L335.023 4L331.408 12.6316L324 16.2406L331.408 19.8496L335.023 30L339.241 19.8496L347 16.2406L339.241 12.6316Z" fill="url(#paint1_linear_110_162)"/>
</g>
<path d="M293.728 17.1279H22.4434C20.7955 29.6361 16.2268 34.6533 1.18164 39.737V112.903C18.0525 115.552 22.0382 119.572 22.4434 129.859H638.247C646.151 116.965 652.826 111.845 670.534 108.192V37.5389C651.947 35.8929 645.12 31.1671 638.247 17.1279H383.106" stroke="#C1A875"/>
<path d="M72.116 98C70.796 98 69.776 97.66 69.056 96.98C68.376 96.26 68.036 95.24 68.036 93.92V59.78C68.036 58.46 68.376 57.46 69.056 56.78C69.776 56.06 70.796 55.7 72.116 55.7H93.536C94.536 55.7 95.296 55.96 95.816 56.48C96.376 57 96.656 57.74 96.656 58.7C96.656 59.7 96.376 60.48 95.816 61.04C95.296 61.56 94.536 61.82 93.536 61.82H75.416V73.46H92.216C93.256 73.46 94.036 73.72 94.556 74.24C95.076 74.76 95.336 75.52 95.336 76.52C95.336 77.52 95.076 78.28 94.556 78.8C94.036 79.32 93.256 79.58 92.216 79.58H75.416V91.88H93.536C94.536 91.88 95.296 92.14 95.816 92.66C96.376 93.18 96.656 93.94 96.656 94.94C96.656 95.94 96.376 96.7 95.816 97.22C95.296 97.74 94.536 98 93.536 98H72.116ZM120.461 98.48C119.381 98.48 118.481 98.24 117.761 97.76C117.081 97.24 116.521 96.48 116.081 95.48L100.421 60.32C99.981 59.32 99.861 58.44 100.061 57.68C100.261 56.92 100.681 56.32 101.321 55.88C101.961 55.44 102.721 55.22 103.601 55.22C104.761 55.22 105.621 55.48 106.181 56C106.781 56.48 107.281 57.22 107.681 58.22L121.901 91.16H119.321L133.481 58.16C133.921 57.2 134.441 56.48 135.041 56C135.641 55.48 136.481 55.22 137.561 55.22C138.441 55.22 139.161 55.44 139.721 55.88C140.321 56.32 140.701 56.92 140.861 57.68C141.021 58.44 140.881 59.32 140.441 60.32L124.781 95.48C124.341 96.48 123.781 97.24 123.101 97.76C122.461 98.24 121.581 98.48 120.461 98.48ZM150.514 98C149.194 98 148.174 97.66 147.454 96.98C146.774 96.26 146.434 95.24 146.434 93.92V59.78C146.434 58.46 146.774 57.46 147.454 56.78C148.174 56.06 149.194 55.7 150.514 55.7H171.934C172.934 55.7 173.694 55.96 174.214 56.48C174.774 57 175.054 57.74 175.054 58.7C175.054 59.7 174.774 60.48 174.214 61.04C173.694 61.56 172.934 61.82 171.934 61.82H153.814V73.46H170.614C171.654 73.46 172.434 73.72 172.954 74.24C173.474 74.76 173.734 75.52 173.734 76.52C173.734 77.52 173.474 78.28 172.954 78.8C172.434 79.32 171.654 79.58 170.614 79.58H153.814V91.88H171.934C172.934 91.88 173.694 92.14 174.214 92.66C174.774 93.18 175.054 93.94 175.054 94.94C175.054 95.94 174.774 96.7 174.214 97.22C173.694 97.74 172.934 98 171.934 98H150.514ZM185.835 98.48C184.675 98.48 183.775 98.16 183.135 97.52C182.535 96.88 182.235 95.96 182.235 94.76V59.06C182.235 57.82 182.535 56.88 183.135 56.24C183.775 55.56 184.595 55.22 185.595 55.22C186.515 55.22 187.195 55.4 187.635 55.76C188.115 56.08 188.675 56.64 189.315 57.44L212.295 87.26H210.735V58.88C210.735 57.72 211.035 56.82 211.635 56.18C212.275 55.54 213.175 55.22 214.335 55.22C215.495 55.22 216.375 55.54 216.975 56.18C217.575 56.82 217.875 57.72 217.875 58.88V94.88C217.875 96 217.595 96.88 217.035 97.52C216.475 98.16 215.715 98.48 214.755 98.48C213.835 98.48 213.095 98.3 212.535 97.94C212.015 97.58 211.435 97 210.795 96.2L187.875 66.38H189.375V94.76C189.375 95.96 189.075 96.88 188.475 97.52C187.875 98.16 186.995 98.48 185.835 98.48ZM241.158 98.48C239.918 98.48 238.958 98.14 238.278 97.46C237.638 96.74 237.318 95.76 237.318 94.52V62.12H225.618C224.578 62.12 223.758 61.84 223.158 61.28C222.598 60.68 222.318 59.88 222.318 58.88C222.318 57.84 222.598 57.06 223.158 56.54C223.758 55.98 224.578 55.7 225.618 55.7H256.698C257.738 55.7 258.538 55.98 259.098 56.54C259.698 57.06 259.998 57.84 259.998 58.88C259.998 59.88 259.698 60.68 259.098 61.28C258.538 61.84 257.738 62.12 256.698 62.12H244.998V94.52C244.998 95.76 244.678 96.74 244.038 97.46C243.398 98.14 242.438 98.48 241.158 98.48ZM300.353 98.6C295.953 98.6 292.173 97.72 289.013 95.96C285.893 94.16 283.493 91.64 281.813 88.4C280.133 85.12 279.293 81.26 279.293 76.82C279.293 73.5 279.773 70.52 280.733 67.88C281.693 65.2 283.073 62.92 284.873 61.04C286.673 59.12 288.873 57.66 291.473 56.66C294.113 55.62 297.073 55.1 300.353 55.1C302.553 55.1 304.713 55.38 306.833 55.94C308.953 56.5 310.813 57.3 312.413 58.34C313.253 58.86 313.813 59.5 314.093 60.26C314.373 60.98 314.433 61.7 314.273 62.42C314.113 63.1 313.773 63.68 313.253 64.16C312.773 64.64 312.153 64.92 311.393 65C310.673 65.04 309.873 64.78 308.993 64.22C307.753 63.42 306.413 62.84 304.973 62.48C303.533 62.12 302.073 61.94 300.593 61.94C297.753 61.94 295.353 62.52 293.393 63.68C291.433 64.84 289.953 66.52 288.953 68.72C287.953 70.92 287.453 73.62 287.453 76.82C287.453 79.98 287.953 82.68 288.953 84.92C289.953 87.16 291.433 88.86 293.393 90.02C295.353 91.18 297.753 91.76 300.593 91.76C302.113 91.76 303.613 91.58 305.093 91.22C306.573 90.82 307.973 90.22 309.293 89.42C310.173 88.9 310.953 88.68 311.633 88.76C312.353 88.8 312.953 89.04 313.433 89.48C313.913 89.92 314.233 90.48 314.393 91.16C314.553 91.8 314.513 92.48 314.273 93.2C314.033 93.88 313.553 94.48 312.833 95C311.233 96.16 309.313 97.06 307.073 97.7C304.873 98.3 302.633 98.6 300.353 98.6ZM320.995 98.48C320.035 98.48 319.255 98.26 318.655 97.82C318.095 97.38 317.755 96.8 317.635 96.08C317.515 95.32 317.655 94.48 318.055 93.56L333.895 58.46C334.415 57.3 335.035 56.48 335.755 56C336.515 55.48 337.375 55.22 338.335 55.22C339.255 55.22 340.075 55.48 340.795 56C341.555 56.48 342.195 57.3 342.715 58.46L358.615 93.56C359.055 94.48 359.215 95.32 359.095 96.08C358.975 96.84 358.635 97.44 358.075 97.88C357.515 98.28 356.775 98.48 355.855 98.48C354.735 98.48 353.855 98.22 353.215 97.7C352.615 97.14 352.075 96.3 351.595 95.18L347.695 86.12L350.935 88.22H325.615L328.855 86.12L325.015 95.18C324.495 96.34 323.955 97.18 323.395 97.7C322.835 98.22 322.035 98.48 320.995 98.48ZM338.215 64.04L329.815 84.02L328.255 82.1H348.295L346.795 84.02L338.335 64.04H338.215ZM369.124 98C367.884 98 366.924 97.66 366.244 96.98C365.564 96.26 365.224 95.28 365.224 94.04V59.42C365.224 58.14 365.544 57.18 366.184 56.54C366.864 55.86 367.824 55.52 369.064 55.52C370.304 55.52 371.244 55.86 371.884 56.54C372.564 57.18 372.904 58.14 372.904 59.42V91.46H390.304C391.384 91.46 392.204 91.74 392.764 92.3C393.364 92.86 393.664 93.66 393.664 94.7C393.664 95.74 393.364 96.56 392.764 97.16C392.204 97.72 391.384 98 390.304 98H369.124ZM402.995 98C401.675 98 400.655 97.66 399.935 96.98C399.255 96.26 398.915 95.24 398.915 93.92V59.78C398.915 58.46 399.255 57.46 399.935 56.78C400.655 56.06 401.675 55.7 402.995 55.7H424.415C425.415 55.7 426.175 55.96 426.695 56.48C427.255 57 427.535 57.74 427.535 58.7C427.535 59.7 427.255 60.48 426.695 61.04C426.175 61.56 425.415 61.82 424.415 61.82H406.295V73.46H423.095C424.135 73.46 424.915 73.72 425.435 74.24C425.955 74.76 426.215 75.52 426.215 76.52C426.215 77.52 425.955 78.28 425.435 78.8C424.915 79.32 424.135 79.58 423.095 79.58H406.295V91.88H424.415C425.415 91.88 426.175 92.14 426.695 92.66C427.255 93.18 427.535 93.94 427.535 94.94C427.535 95.94 427.255 96.7 426.695 97.22C426.175 97.74 425.415 98 424.415 98H402.995ZM438.316 98.48C437.156 98.48 436.256 98.16 435.616 97.52C435.016 96.88 434.716 95.96 434.716 94.76V59.06C434.716 57.82 435.016 56.88 435.616 56.24C436.256 55.56 437.076 55.22 438.076 55.22C438.996 55.22 439.676 55.4 440.116 55.76C440.596 56.08 441.156 56.64 441.796 57.44L464.776 87.26H463.216V58.88C463.216 57.72 463.516 56.82 464.116 56.18C464.756 55.54 465.656 55.22 466.816 55.22C467.976 55.22 468.856 55.54 469.456 56.18C470.056 56.82 470.356 57.72 470.356 58.88V94.88C470.356 96 470.076 96.88 469.516 97.52C468.956 98.16 468.196 98.48 467.236 98.48C466.316 98.48 465.576 98.3 465.016 97.94C464.496 97.58 463.916 97 463.276 96.2L440.356 66.38H441.856V94.76C441.856 95.96 441.556 96.88 440.956 97.52C440.356 98.16 439.476 98.48 438.316 98.48ZM483.679 98C482.359 98 481.339 97.66 480.619 96.98C479.939 96.26 479.599 95.24 479.599 93.92V59.78C479.599 58.46 479.939 57.46 480.619 56.78C481.339 56.06 482.359 55.7 483.679 55.7H495.319C502.399 55.7 507.859 57.52 511.699 61.16C515.579 64.8 517.519 70.02 517.519 76.82C517.519 80.22 517.019 83.24 516.019 85.88C515.059 88.48 513.619 90.68 511.699 92.48C509.819 94.28 507.499 95.66 504.739 96.62C502.019 97.54 498.879 98 495.319 98H483.679ZM487.279 91.64H494.839C497.319 91.64 499.459 91.34 501.259 90.74C503.099 90.1 504.619 89.18 505.819 87.98C507.059 86.74 507.979 85.2 508.579 83.36C509.179 81.48 509.479 79.3 509.479 76.82C509.479 71.86 508.259 68.16 505.819 65.72C503.379 63.28 499.719 62.06 494.839 62.06H487.279V91.64ZM524.843 98.48C523.883 98.48 523.103 98.26 522.503 97.82C521.943 97.38 521.603 96.8 521.483 96.08C521.363 95.32 521.503 94.48 521.903 93.56L537.743 58.46C538.263 57.3 538.883 56.48 539.603 56C540.363 55.48 541.223 55.22 542.183 55.22C543.103 55.22 543.923 55.48 544.643 56C545.403 56.48 546.043 57.3 546.563 58.46L562.463 93.56C562.903 94.48 563.063 95.32 562.943 96.08C562.823 96.84 562.483 97.44 561.923 97.88C561.363 98.28 560.623 98.48 559.703 98.48C558.583 98.48 557.703 98.22 557.063 97.7C556.463 97.14 555.923 96.3 555.443 95.18L551.543 86.12L554.783 88.22H529.463L532.703 86.12L528.863 95.18C528.343 96.34 527.803 97.18 527.243 97.7C526.683 98.22 525.883 98.48 524.843 98.48ZM542.063 64.04L533.663 84.02L532.103 82.1H552.143L550.643 84.02L542.183 64.04H542.063ZM572.911 98.48C571.671 98.48 570.711 98.14 570.031 97.46C569.391 96.74 569.071 95.76 569.071 94.52V59.6C569.071 58.32 569.411 57.36 570.091 56.72C570.771 56.04 571.731 55.7 572.971 55.7H587.431C592.071 55.7 595.651 56.82 598.171 59.06C600.691 61.26 601.951 64.36 601.951 68.36C601.951 70.96 601.371 73.2 600.211 75.08C599.091 76.96 597.451 78.4 595.291 79.4C593.131 80.4 590.511 80.9 587.431 80.9L587.971 80H589.951C591.591 80 593.011 80.4 594.211 81.2C595.451 82 596.531 83.26 597.451 84.98L601.951 93.32C602.431 94.16 602.651 94.98 602.611 95.78C602.571 96.58 602.271 97.24 601.711 97.76C601.151 98.24 600.331 98.48 599.251 98.48C598.171 98.48 597.291 98.26 596.611 97.82C595.931 97.34 595.331 96.62 594.811 95.66L588.751 84.5C588.031 83.14 587.171 82.24 586.171 81.8C585.211 81.32 583.971 81.08 582.451 81.08H576.751V94.52C576.751 95.76 576.431 96.74 575.791 97.46C575.151 98.14 574.191 98.48 572.911 98.48ZM576.751 75.38H586.111C588.871 75.38 590.951 74.82 592.351 73.7C593.791 72.54 594.511 70.82 594.511 68.54C594.511 66.3 593.791 64.62 592.351 63.5C590.951 62.34 588.871 61.76 586.111 61.76H576.751V75.38Z" fill="url(#paint2_linear_110_162)"/>
<defs>
<filter id="filter0_f_110_162" x="320" y="0" width="31" height="34" filterUnits="userSpaceOnUse" color-interpolation-filters="sRGB">
<feFlood flood-opacity="0" result="BackgroundImageFix"/>
<feBlend mode="normal" in="SourceGraphic" in2="BackgroundImageFix" result="shape"/>
<feGaussianBlur stdDeviation="2" result="effect1_foregroundBlur_110_162"/>
</filter>
<linearGradient id="paint0_linear_110_162" x1="471.458" y1="24" x2="476.645" y2="201.587" gradientUnits="userSpaceOnUse">
<stop stop-color="#15121A"/>
<stop offset="0.794474" stop-color="#675980"/>
</linearGradient>
<linearGradient id="paint1_linear_110_162" x1="335.5" y1="4" x2="335.5" y2="30" gradientUnits="userSpaceOnUse">
<stop stop-color="#FFDA7C"/>
<stop offset="0.465017" stop-color="#FFDA7C"/>
<stop offset="1" stop-color="#D09742"/>
</linearGradient>
<linearGradient id="paint2_linear_110_162" x1="375.389" y1="53.4804" x2="375.389" y2="113.373" gradientUnits="userSpaceOnUse">
<stop stop-color="#D09742"/>
<stop offset="0.46103" stop-color="#FFDA7C"/>
<stop offset="1" stop-color="#6A4D22"/>
</linearGradient>
</defs>
</svg>