<svg width="188" height="50" viewBox="0 0 188 50" fill="none" xmlns="http://www.w3.org/2000/svg">
<path d="M119 27C119 25.8954 119.895 25 121 25H186C187.105 25 188 25.8954 188 27C188 28.1046 187.105 29 186 29H121C119.895 29 119 28.1046 119 27Z" fill="url(#paint0_linear_78_294)"/>
<path d="M0 27C0 25.8954 0.895431 25 2 25H67C68.1046 25 69 25.8954 69 27C69 28.1046 68.1046 29 67 29H2C0.89543 29 0 28.1046 0 27Z" fill="url(#paint1_linear_78_294)"/>
<path d="M96.521 31.9591V22.0108C96.521 21.5776 96.1699 21.2264 95.7366 21.2264C95.3033 21.2264 94.9522 21.5777 94.9522 22.0108V31.5897H93.0475V10.5173C93.0475 10.109 93.3796 9.77675 93.7879 9.77675H94.2117C94.62 9.77675 94.9522 10.1089 94.9522 10.5173V19.4486C94.9522 19.8818 95.3033 20.233 95.7366 20.233C96.1699 20.233 96.521 19.8817 96.521 19.4486V10.5173C96.521 9.24397 95.485 8.20801 94.2117 8.20801H93.7879C92.5146 8.20801 91.4786 9.24397 91.4786 10.5173V31.9591C90.8421 32.3708 90.4197 33.0861 90.4197 33.899V35.7628V44.7428C90.4197 46.0161 91.4556 47.052 92.7289 47.052H95.2705C96.5438 47.052 97.5797 46.0161 97.5797 44.7428V35.7628V33.899C97.5797 33.0861 97.1575 32.3708 96.521 31.9591ZM96.0111 44.7427C96.011 45.1509 95.679 45.4831 95.2705 45.4831H92.729C92.3207 45.4831 91.9886 45.151 91.9886 44.7427V36.5471H96.0111V44.7427ZM96.0111 34.9784H91.9886V33.8989C91.9886 33.5694 92.2051 33.2897 92.5033 33.194C92.5369 33.1833 92.5712 33.1755 92.6056 33.1697C92.6122 33.1685 92.6188 33.1675 92.6255 33.1667C92.66 33.1617 92.6944 33.1585 92.7291 33.1585H95.2705C95.3052 33.1585 95.3398 33.1617 95.3741 33.1667C95.3808 33.1676 95.3875 33.1686 95.3942 33.1697C95.4285 33.1755 95.4626 33.1833 95.4962 33.1939C95.7944 33.2896 96.011 33.5694 96.011 33.8989V34.9784H96.0111Z" fill="url(#paint2_linear_78_294)"/>
<path d="M95.7368 48.1094H92.2633C91.83 48.1094 91.4789 48.4606 91.4789 48.8937C91.4789 49.327 91.8301 49.6781 92.2633 49.6781H95.7368C96.1702 49.6781 96.5212 49.3269 96.5212 48.8937C96.5212 48.4605 96.1701 48.1094 95.7368 48.1094Z" fill="url(#paint3_linear_78_294)"/>
<path d="M107.215 12.9014H103.164C102.731 12.9014 102.38 13.2526 102.38 13.6857C102.38 14.119 102.731 14.4701 103.164 14.4701H107.215C107.649 14.4701 108 14.1189 108 13.6857C108 13.2525 107.649 12.9014 107.215 12.9014Z" fill="url(#paint4_linear_78_294)"/>
<path d="M85.6199 14.3146C85.6199 13.8814 85.2687 13.5303 84.8356 13.5303H80.7844C80.3511 13.5303 80 13.8815 80 14.3146C80 14.7479 80.3512 15.099 80.7844 15.099H84.8356C85.2687 15.099 85.6199 14.7478 85.6199 14.3146Z" fill="url(#paint5_linear_78_294)"/>
<path d="M100.812 7.85214L103.677 4.9874C103.983 4.68108 103.983 4.1844 103.677 3.87818C103.37 3.57186 102.874 3.57186 102.567 3.87818L99.7026 6.74273C99.3963 7.04904 99.3963 7.54573 99.7026 7.85195C99.8558 8.00506 100.057 8.08171 100.257 8.08171C100.458 8.08181 100.659 8.00525 100.812 7.85214Z" fill="url(#paint6_linear_78_294)"/>
<path d="M87.1871 20.1487L84.3224 23.0133C84.0161 23.3196 84.0161 23.8163 84.3224 24.1225C84.4755 24.2757 84.6763 24.3523 84.877 24.3523C85.0777 24.3523 85.2785 24.2757 85.4316 24.1225L88.2964 21.258C88.6027 20.9517 88.6027 20.455 88.2964 20.1488C87.9901 19.8424 87.4935 19.8424 87.1871 20.1487Z" fill="url(#paint7_linear_78_294)"/>
<path d="M93.685 5.62005C94.1183 5.62005 94.4694 5.26881 94.4694 4.83567V0.784373C94.4694 0.351144 94.1182 0 93.685 0C93.2518 0 92.9006 0.351241 92.9006 0.784373V4.83558C92.9005 5.26881 93.2518 5.62005 93.685 5.62005Z" fill="url(#paint8_linear_78_294)"/>
<path d="M86.7423 8.29749C86.8954 8.4507 87.0963 8.52725 87.2969 8.52725C87.4976 8.52725 87.6984 8.4507 87.8516 8.29749C88.1579 7.99118 88.1579 7.49459 87.8516 7.18827L84.9869 4.32352C84.6807 4.01711 84.184 4.01721 83.8777 4.32352C83.5714 4.62984 83.5714 5.12643 83.8777 5.43275L86.7423 8.29749Z" fill="url(#paint9_linear_78_294)"/>
<path d="M101.258 19.7034C100.952 19.3971 100.455 19.3971 100.149 19.7034C99.8424 20.0097 99.8424 20.5063 100.149 20.8126L103.013 23.6773C103.166 23.8305 103.367 23.9071 103.568 23.9071C103.769 23.9071 103.969 23.8305 104.123 23.6773C104.429 23.371 104.429 22.8744 104.123 22.5681L101.258 19.7034Z" fill="url(#paint10_linear_78_294)"/>
<defs>
<linearGradient id="paint0_linear_78_294" x1="119" y1="27" x2="188" y2="27" gradientUnits="userSpaceOnUse">
<stop stop-color="#D09742"/>
<stop offset="0.475" stop-color="#FFDA7C"/>
<stop offset="1" stop-color="#905803"/>
</linearGradient>
<linearGradient id="paint1_linear_78_294" x1="0" y1="27" x2="69" y2="27" gradientUnits="userSpaceOnUse">
<stop stop-color="#D09742"/>
<stop offset="0.475" stop-color="#FFDA7C"/>
<stop offset="1" stop-color="#905803"/>
</linearGradient>
<linearGradient id="paint2_linear_78_294" x1="93.9997" y1="8.20801" x2="93.9997" y2="47.052" gradientUnits="userSpaceOnUse">
<stop stop-color="#DDA82A"/>
<stop offset="0.48" stop-color="#FFDA7C"/>
<stop offset="1" stop-color="#D09742"/>
</linearGradient>
<linearGradient id="paint3_linear_78_294" x1="94.0001" y1="48.1094" x2="94.0001" y2="49.6781" gradientUnits="userSpaceOnUse">
<stop stop-color="#DDA82A"/>
<stop offset="0.48" stop-color="#FFDA7C"/>
<stop offset="1" stop-color="#D09742"/>
</linearGradient>
<linearGradient id="paint4_linear_78_294" x1="105.19" y1="12.9014" x2="105.19" y2="14.4701" gradientUnits="userSpaceOnUse">
<stop stop-color="#DDA82A"/>
<stop offset="0.48" stop-color="#FFDA7C"/>
<stop offset="1" stop-color="#D09742"/>
</linearGradient>
<linearGradient id="paint5_linear_78_294" x1="82.81" y1="13.5303" x2="82.81" y2="15.099" gradientUnits="userSpaceOnUse">
<stop stop-color="#DDA82A"/>
<stop offset="0.48" stop-color="#FFDA7C"/>
<stop offset="1" stop-color="#D09742"/>
</linearGradient>
<linearGradient id="paint6_linear_78_294" x1="101.69" y1="3.64844" x2="101.69" y2="8.08171" gradientUnits="userSpaceOnUse">
<stop stop-color="#DDA82A"/>
<stop offset="0.48" stop-color="#FFDA7C"/>
<stop offset="1" stop-color="#D09742"/>
</linearGradient>
<linearGradient id="paint7_linear_78_294" x1="86.3094" y1="19.9189" x2="86.3094" y2="24.3523" gradientUnits="userSpaceOnUse">
<stop stop-color="#DDA82A"/>
<stop offset="0.48" stop-color="#FFDA7C"/>
<stop offset="1" stop-color="#D09742"/>
</linearGradient>
<linearGradient id="paint8_linear_78_294" x1="93.685" y1="0" x2="93.685" y2="5.62005" gradientUnits="userSpaceOnUse">
<stop stop-color="#DDA82A"/>
<stop offset="0.48" stop-color="#FFDA7C"/>
<stop offset="1" stop-color="#D09742"/>
</linearGradient>
<linearGradient id="paint9_linear_78_294" x1="85.8646" y1="4.09375" x2="85.8646" y2="8.52725" gradientUnits="userSpaceOnUse">
<stop stop-color="#DDA82A"/>
<stop offset="0.48" stop-color="#FFDA7C"/>
<stop offset="1" stop-color="#D09742"/>
</linearGradient>
<linearGradient id="paint10_linear_78_294" x1="102.136" y1="19.4736" x2="102.136" y2="23.9071" gradientUnits="userSpaceOnUse">
<stop stop-color="#DDA82A"/>
<stop offset="0.48" stop-color="#FFDA7C"/>
<stop offset="1" stop-color="#D09742"/>
</linearGradient>
</defs>
</svg>
