<svg width="672" height="131" viewBox="0 0 672 131" fill="none" xmlns="http://www.w3.org/2000/svg">
<rect y="17.1279" width="670.139" height="113.673" rx="10" fill="url(#paint0_linear_33_554)"/>
<g filter="url(#filter0_f_33_554)">
<path d="M339.242 12.6316L335.024 4L331.408 12.6316L324 16.2406L331.408 19.8496L335.024 30L339.242 19.8496L347 16.2406L339.242 12.6316Z" fill="url(#paint1_linear_33_554)"/>
</g>
<path d="M293.728 17.1279H22.4434C20.7955 29.6361 16.2268 34.6533 1.18164 39.737V112.903C18.0525 115.552 22.0382 119.572 22.4434 129.859H638.247C646.151 116.965 652.826 111.845 670.534 108.192V37.5389C651.947 35.8929 645.12 31.1671 638.247 17.1279H383.106" stroke="#C1A875"/>
<path d="M203.527 98.6C199.127 98.6 195.347 97.72 192.187 95.96C189.067 94.16 186.667 91.64 184.987 88.4C183.307 85.12 182.467 81.26 182.467 76.82C182.467 73.5 182.947 70.52 183.907 67.88C184.867 65.2 186.247 62.92 188.047 61.04C189.847 59.12 192.047 57.66 194.647 56.66C197.287 55.62 200.247 55.1 203.527 55.1C205.727 55.1 207.887 55.38 210.007 55.94C212.127 56.5 213.987 57.3 215.587 58.34C216.427 58.86 216.987 59.5 217.267 60.26C217.547 60.98 217.607 61.7 217.447 62.42C217.287 63.1 216.947 63.68 216.427 64.16C215.947 64.64 215.327 64.92 214.567 65C213.847 65.04 213.047 64.78 212.167 64.22C210.927 63.42 209.587 62.84 208.147 62.48C206.707 62.12 205.247 61.94 203.767 61.94C200.927 61.94 198.527 62.52 196.567 63.68C194.607 64.84 193.127 66.52 192.127 68.72C191.127 70.92 190.627 73.62 190.627 76.82C190.627 79.98 191.127 82.68 192.127 84.92C193.127 87.16 194.607 88.86 196.567 90.02C198.527 91.18 200.927 91.76 203.767 91.76C205.287 91.76 206.787 91.58 208.267 91.22C209.747 90.82 211.147 90.22 212.467 89.42C213.347 88.9 214.127 88.68 214.807 88.76C215.527 88.8 216.127 89.04 216.607 89.48C217.087 89.92 217.407 90.48 217.567 91.16C217.727 91.8 217.687 92.48 217.447 93.2C217.207 93.88 216.727 94.48 216.007 95C214.407 96.16 212.487 97.06 210.247 97.7C208.047 98.3 205.807 98.6 203.527 98.6ZM242.24 98.6C238.16 98.6 234.58 97.7 231.5 95.9C228.46 94.1 226.1 91.58 224.42 88.34C222.74 85.06 221.9 81.22 221.9 76.82C221.9 73.5 222.38 70.52 223.34 67.88C224.3 65.2 225.66 62.92 227.42 61.04C229.22 59.12 231.36 57.66 233.84 56.66C236.36 55.62 239.16 55.1 242.24 55.1C246.36 55.1 249.94 56 252.98 57.8C256.02 59.56 258.38 62.06 260.06 65.3C261.74 68.54 262.58 72.36 262.58 76.76C262.58 80.08 262.1 83.08 261.14 85.76C260.18 88.44 258.8 90.74 257 92.66C255.24 94.58 253.1 96.06 250.58 97.1C248.1 98.1 245.32 98.6 242.24 98.6ZM242.24 92C244.84 92 247.04 91.4 248.84 90.2C250.68 89 252.08 87.26 253.04 84.98C254.04 82.7 254.54 79.98 254.54 76.82C254.54 72.02 253.46 68.3 251.3 65.66C249.18 63.02 246.16 61.7 242.24 61.7C239.68 61.7 237.48 62.3 235.64 63.5C233.8 64.66 232.38 66.38 231.38 68.66C230.42 70.9 229.94 73.62 229.94 76.82C229.94 81.58 231.02 85.3 233.18 87.98C235.34 90.66 238.36 92 242.24 92ZM284.97 98.6C283.21 98.6 281.45 98.46 279.69 98.18C277.93 97.94 276.27 97.56 274.71 97.04C273.15 96.48 271.75 95.8 270.51 95C269.79 94.52 269.29 93.94 269.01 93.26C268.73 92.58 268.63 91.92 268.71 91.28C268.83 90.6 269.09 90.02 269.49 89.54C269.93 89.02 270.47 88.7 271.11 88.58C271.75 88.46 272.45 88.64 273.21 89.12C274.97 90.16 276.83 90.92 278.79 91.4C280.75 91.88 282.81 92.12 284.97 92.12C288.13 92.12 290.43 91.6 291.87 90.56C293.31 89.48 294.03 88.1 294.03 86.42C294.03 85.02 293.51 83.92 292.47 83.12C291.47 82.32 289.73 81.66 287.25 81.14L280.65 79.76C276.85 78.96 274.01 77.62 272.13 75.74C270.29 73.82 269.37 71.3 269.37 68.18C269.37 66.22 269.77 64.44 270.57 62.84C271.37 61.24 272.49 59.86 273.93 58.7C275.41 57.54 277.15 56.66 279.15 56.06C281.19 55.42 283.43 55.1 285.87 55.1C288.27 55.1 290.55 55.4 292.71 56C294.87 56.6 296.81 57.48 298.53 58.64C299.17 59.08 299.59 59.62 299.79 60.26C300.03 60.9 300.09 61.54 299.97 62.18C299.85 62.78 299.57 63.3 299.13 63.74C298.69 64.18 298.13 64.44 297.45 64.52C296.81 64.6 296.07 64.4 295.23 63.92C293.75 63.08 292.25 62.48 290.73 62.12C289.21 61.76 287.57 61.58 285.81 61.58C283.97 61.58 282.39 61.84 281.07 62.36C279.75 62.88 278.73 63.62 278.01 64.58C277.33 65.5 276.99 66.6 276.99 67.88C276.99 69.32 277.47 70.48 278.43 71.36C279.39 72.2 281.03 72.86 283.35 73.34L289.89 74.72C293.85 75.56 296.79 76.88 298.71 78.68C300.67 80.48 301.65 82.88 301.65 85.88C301.65 87.8 301.25 89.54 300.45 91.1C299.69 92.66 298.57 94 297.09 95.12C295.65 96.24 293.91 97.1 291.87 97.7C289.83 98.3 287.53 98.6 284.97 98.6ZM312.081 98.48C310.841 98.48 309.881 98.14 309.201 97.46C308.561 96.74 308.241 95.76 308.241 94.52V59.6C308.241 58.32 308.581 57.36 309.261 56.72C309.941 56.04 310.901 55.7 312.141 55.7H326.601C331.241 55.7 334.821 56.86 337.341 59.18C339.861 61.5 341.121 64.74 341.121 68.9C341.121 73.06 339.861 76.32 337.341 78.68C334.821 81 331.241 82.16 326.601 82.16H315.921V94.52C315.921 95.76 315.601 96.74 314.961 97.46C314.321 98.14 313.361 98.48 312.081 98.48ZM315.921 76.1H325.401C328.121 76.1 330.181 75.5 331.581 74.3C332.981 73.06 333.681 71.26 333.681 68.9C333.681 66.54 332.981 64.76 331.581 63.56C330.181 62.36 328.121 61.76 325.401 61.76H315.921V76.1ZM351.282 98C350.042 98 349.082 97.66 348.402 96.98C347.722 96.26 347.382 95.28 347.382 94.04V59.42C347.382 58.14 347.702 57.18 348.342 56.54C349.022 55.86 349.982 55.52 351.222 55.52C352.462 55.52 353.402 55.86 354.042 56.54C354.722 57.18 355.062 58.14 355.062 59.42V91.46H372.462C373.542 91.46 374.362 91.74 374.922 92.3C375.522 92.86 375.822 93.66 375.822 94.7C375.822 95.74 375.522 96.56 374.922 97.16C374.362 97.72 373.542 98 372.462 98H351.282ZM380.556 98.48C379.596 98.48 378.816 98.26 378.216 97.82C377.656 97.38 377.316 96.8 377.196 96.08C377.076 95.32 377.216 94.48 377.616 93.56L393.456 58.46C393.976 57.3 394.596 56.48 395.316 56C396.076 55.48 396.936 55.22 397.896 55.22C398.816 55.22 399.636 55.48 400.356 56C401.116 56.48 401.756 57.3 402.276 58.46L418.176 93.56C418.616 94.48 418.776 95.32 418.656 96.08C418.536 96.84 418.196 97.44 417.636 97.88C417.076 98.28 416.336 98.48 415.416 98.48C414.296 98.48 413.416 98.22 412.776 97.7C412.176 97.14 411.636 96.3 411.156 95.18L407.256 86.12L410.496 88.22H385.176L388.416 86.12L384.576 95.18C384.056 96.34 383.516 97.18 382.956 97.7C382.396 98.22 381.596 98.48 380.556 98.48ZM397.776 64.04L389.376 84.02L387.816 82.1H407.856L406.356 84.02L397.896 64.04H397.776ZM434.778 98.48C433.538 98.48 432.578 98.14 431.898 97.46C431.258 96.74 430.938 95.74 430.938 94.46V76.22L432.558 80.84L418.098 60.5C417.578 59.78 417.338 59.02 417.378 58.22C417.458 57.38 417.798 56.68 418.398 56.12C418.998 55.52 419.838 55.22 420.918 55.22C421.718 55.22 422.438 55.42 423.078 55.82C423.758 56.22 424.398 56.84 424.998 57.68L435.738 72.92H434.058L444.858 57.68C445.498 56.8 446.118 56.18 446.718 55.82C447.318 55.42 448.058 55.22 448.938 55.22C449.978 55.22 450.778 55.5 451.338 56.06C451.938 56.58 452.238 57.24 452.238 58.04C452.278 58.84 451.998 59.68 451.398 60.56L437.058 80.84L438.618 76.22V94.46C438.618 97.14 437.338 98.48 434.778 98.48ZM471.122 98.6C469.362 98.6 467.602 98.46 465.842 98.18C464.082 97.94 462.422 97.56 460.862 97.04C459.302 96.48 457.902 95.8 456.662 95C455.942 94.52 455.442 93.94 455.162 93.26C454.882 92.58 454.782 91.92 454.862 91.28C454.982 90.6 455.242 90.02 455.642 89.54C456.082 89.02 456.622 88.7 457.262 88.58C457.902 88.46 458.602 88.64 459.362 89.12C461.122 90.16 462.982 90.92 464.942 91.4C466.902 91.88 468.962 92.12 471.122 92.12C474.282 92.12 476.582 91.6 478.022 90.56C479.462 89.48 480.182 88.1 480.182 86.42C480.182 85.02 479.662 83.92 478.622 83.12C477.622 82.32 475.882 81.66 473.402 81.14L466.802 79.76C463.002 78.96 460.162 77.62 458.282 75.74C456.442 73.82 455.522 71.3 455.522 68.18C455.522 66.22 455.922 64.44 456.722 62.84C457.522 61.24 458.642 59.86 460.082 58.7C461.562 57.54 463.302 56.66 465.302 56.06C467.342 55.42 469.582 55.1 472.022 55.1C474.422 55.1 476.702 55.4 478.862 56C481.022 56.6 482.962 57.48 484.682 58.64C485.322 59.08 485.742 59.62 485.942 60.26C486.182 60.9 486.242 61.54 486.122 62.18C486.002 62.78 485.722 63.3 485.282 63.74C484.842 64.18 484.282 64.44 483.602 64.52C482.962 64.6 482.222 64.4 481.382 63.92C479.902 63.08 478.402 62.48 476.882 62.12C475.362 61.76 473.722 61.58 471.962 61.58C470.122 61.58 468.542 61.84 467.222 62.36C465.902 62.88 464.882 63.62 464.162 64.58C463.482 65.5 463.142 66.6 463.142 67.88C463.142 69.32 463.622 70.48 464.582 71.36C465.542 72.2 467.182 72.86 469.502 73.34L476.042 74.72C480.002 75.56 482.942 76.88 484.862 78.68C486.822 80.48 487.802 82.88 487.802 85.88C487.802 87.8 487.402 89.54 486.602 91.1C485.842 92.66 484.722 94 483.242 95.12C481.802 96.24 480.062 97.1 478.022 97.7C475.982 98.3 473.682 98.6 471.122 98.6Z" fill="url(#paint2_linear_33_554)"/>
<defs>
<filter id="filter0_f_33_554" x="320" y="0" width="31" height="34" filterUnits="userSpaceOnUse" color-interpolation-filters="sRGB">
<feFlood flood-opacity="0" result="BackgroundImageFix"/>
<feBlend mode="normal" in="SourceGraphic" in2="BackgroundImageFix" result="shape"/>
<feGaussianBlur stdDeviation="2" result="effect1_foregroundBlur_33_554"/>
</filter>
<linearGradient id="paint0_linear_33_554" x1="471.458" y1="24" x2="476.645" y2="201.587" gradientUnits="userSpaceOnUse">
<stop stop-color="#15121A"/>
<stop offset="0.794474" stop-color="#675980"/>
</linearGradient>
<linearGradient id="paint1_linear_33_554" x1="335.5" y1="4" x2="335.5" y2="30" gradientUnits="userSpaceOnUse">
<stop stop-color="#FFDA7C"/>
<stop offset="0.465017" stop-color="#FFDA7C"/>
<stop offset="1" stop-color="#D09742"/>
</linearGradient>
<linearGradient id="paint2_linear_33_554" x1="357.919" y1="53.4804" x2="357.919" y2="113.373" gradientUnits="userSpaceOnUse">
<stop stop-color="#D09742"/>
<stop offset="0.46103" stop-color="#FFDA7C"/>
<stop offset="1" stop-color="#6A4D22"/>
</linearGradient>
</defs>
</svg>
