<svg width="188" height="34" viewBox="0 0 188 34" fill="none" xmlns="http://www.w3.org/2000/svg">
<path d="M119 20C119 18.8954 119.895 18 121 18H186C187.105 18 188 18.8954 188 20C188 21.1046 187.105 22 186 22H121C119.895 22 119 21.1046 119 20Z" fill="url(#paint0_linear_78_319)"/>
<path d="M0 20C0 18.8954 0.895431 18 2 18H67C68.1046 18 69 18.8954 69 20C69 21.1046 68.1046 22 67 22H2C0.89543 22 0 21.1046 0 20Z" fill="url(#paint1_linear_78_319)"/>
<g clip-path="url(#clip0_78_319)">
<mask id="mask0_78_319" style="mask-type:luminance" maskUnits="userSpaceOnUse" x="77" y="0" width="34" height="34">
<path d="M111 0H77V34H111V0Z" fill="white"/>
</mask>
<g mask="url(#mask0_78_319)">
<path d="M101.522 31.6346C100.88 31.6287 100.255 31.4205 99.7375 31.0396L94.5383 27.2571C94.3807 27.1462 94.1927 27.0866 94 27.0866C93.8073 27.0866 93.6192 27.1462 93.4617 27.2571L88.3333 31.0396C87.8133 31.4176 87.1871 31.6213 86.5443 31.6217C85.9015 31.6221 85.275 31.4191 84.7546 31.0417C84.2342 30.6644 83.8465 30.1321 83.647 29.521C83.4476 28.9099 83.4466 28.2513 83.6442 27.6396L85.5708 21.5338C85.6271 21.3474 85.6246 21.1481 85.5638 20.9631C85.503 20.7781 85.3867 20.6163 85.2308 20.4996L80.0317 16.7171C79.5082 16.3424 79.1176 15.8108 78.9165 15.1992C78.7154 14.5877 78.7142 13.928 78.913 13.3157C79.1118 12.7034 79.5004 12.1703 80.0225 11.7936C80.5445 11.4169 81.1729 11.2162 81.8167 11.2205H88.2483C88.4434 11.2209 88.6335 11.1594 88.7914 11.0449C88.9492 10.9303 89.0666 10.7686 89.1267 10.583L91.1667 4.46297C91.3686 3.85617 91.7564 3.32833 92.2751 2.95426C92.7938 2.5802 93.4171 2.37891 94.0567 2.37891C94.6962 2.37891 95.3195 2.5802 95.8382 2.95426C96.3569 3.32833 96.7447 3.85617 96.9467 4.46297L98.93 10.583C98.99 10.7686 99.1074 10.9303 99.2653 11.0449C99.4231 11.1594 99.6133 11.2209 99.8083 11.2205H106.183C106.827 11.2162 107.455 11.4169 107.978 11.7936C108.5 12.1703 108.888 12.7034 109.087 13.3157C109.286 13.928 109.285 14.5877 109.083 15.1992C108.882 15.8108 108.492 16.3424 107.968 16.7171L102.769 20.4996C102.614 20.614 102.499 20.7733 102.438 20.9559C102.377 21.1384 102.374 21.3353 102.429 21.5196L104.427 27.6396C104.629 28.2501 104.631 28.9093 104.432 29.5209C104.233 30.1325 103.844 30.6646 103.322 31.0396C102.8 31.4225 102.17 31.6307 101.522 31.6346ZM94 24.9621C94.6408 24.9659 95.2647 25.1688 95.785 25.543L100.984 29.3255C101.143 29.4396 101.334 29.501 101.53 29.501C101.725 29.501 101.916 29.4396 102.075 29.3255C102.234 29.2152 102.352 29.0553 102.411 28.8709C102.47 28.6864 102.467 28.4876 102.401 28.3055L100.417 22.1855C100.215 21.575 100.213 20.9158 100.412 20.3042C100.611 19.6926 101 19.1605 101.522 18.7855L106.75 15.003C106.908 14.8915 107.026 14.7323 107.087 14.5488C107.149 14.3653 107.15 14.167 107.09 13.983C107.034 13.7949 106.918 13.6306 106.759 13.5154C106.6 13.4001 106.408 13.3404 106.212 13.3455H99.7517C99.1203 13.3328 98.5085 13.1242 98.0009 12.7486C97.4933 12.373 97.115 11.8489 96.9183 11.2488L94.935 5.1288C94.8762 4.94194 94.7593 4.77871 94.6013 4.66284C94.4434 4.54697 94.2526 4.48449 94.0567 4.48449C93.8608 4.48449 93.67 4.54697 93.512 4.66284C93.354 4.77871 93.2372 4.94194 93.1783 5.1288L91.1667 11.2346C90.9724 11.8374 90.5951 12.3645 90.0873 12.7429C89.5795 13.1212 88.9664 13.3318 88.3333 13.3455H81.8167C81.6205 13.3404 81.4282 13.4001 81.2695 13.5154C81.1107 13.6306 80.9943 13.7949 80.9383 13.983C80.8788 14.167 80.8796 14.3653 80.9408 14.5488C81.002 14.7323 81.1203 14.8915 81.2783 15.003L86.4775 18.7855C87 19.1605 87.3889 19.6926 87.5877 20.3042C87.7865 20.9158 87.7847 21.575 87.5825 22.1855L85.5992 28.3338C85.5334 28.516 85.5297 28.7147 85.5887 28.8992C85.6476 29.0837 85.7658 29.2435 85.925 29.3538C86.0839 29.468 86.2747 29.5294 86.4704 29.5294C86.6661 29.5294 86.8569 29.468 87.0158 29.3538L92.215 25.5005C92.7403 25.1414 93.3637 24.9534 94 24.9621Z" fill="url(#paint2_linear_78_319)"/>
</g>
</g>
<defs>
<linearGradient id="paint0_linear_78_319" x1="119" y1="20" x2="188" y2="20" gradientUnits="userSpaceOnUse">
<stop stop-color="#D09742"/>
<stop offset="0.475" stop-color="#FFDA7C"/>
<stop offset="1" stop-color="#905803"/>
</linearGradient>
<linearGradient id="paint1_linear_78_319" x1="0" y1="20" x2="69" y2="20" gradientUnits="userSpaceOnUse">
<stop stop-color="#D09742"/>
<stop offset="0.475" stop-color="#FFDA7C"/>
<stop offset="1" stop-color="#905803"/>
</linearGradient>
<linearGradient id="paint2_linear_78_319" x1="94" y1="2.37891" x2="94" y2="31.6346" gradientUnits="userSpaceOnUse">
<stop stop-color="#DDA82A"/>
<stop offset="0.485" stop-color="#FFDA7C"/>
<stop offset="1" stop-color="#D09742"/>
</linearGradient>
<clipPath id="clip0_78_319">
<rect width="34" height="34" fill="white" transform="translate(77)"/>
</clipPath>
</defs>
</svg>
