<svg width="80" height="61" viewBox="0 0 80 61" fill="none" xmlns="http://www.w3.org/2000/svg">
<path d="M67.6901 5.04368C62.6233 2.69257 57.1374 0.986123 51.423 0.00017443C51.3729 -0.00142054 51.323 0.0079387 51.277 0.0275943C51.2309 0.0472498 51.1897 0.0767244 51.1563 0.113939C50.4706 1.36534 49.6706 2.99594 49.1372 4.24734C43.0761 3.33723 36.9121 3.33723 30.851 4.24734C30.3176 2.95802 29.5176 1.36534 28.7938 0.113939C28.7557 0.0380963 28.6414 0.00017443 28.5271 0.00017443C22.8127 0.986123 17.3649 2.69257 12.26 5.04368C12.2219 5.04368 12.1838 5.0816 12.1457 5.11952C1.78353 20.5534 -1.07369 35.5702 0.335872 50.4352C0.335872 50.5111 0.373969 50.5869 0.450161 50.6249C7.30749 55.6304 13.8981 58.6641 20.4126 60.6739C20.5269 60.7119 20.6412 60.6739 20.6793 60.5981C22.2031 58.5124 23.5746 56.313 24.7556 53.9998C24.8318 53.8481 24.7556 53.6965 24.6032 53.6585C22.4317 52.8243 20.3745 51.8383 18.3554 50.7007C18.203 50.6249 18.203 50.3973 18.3173 50.2836C18.7364 49.9802 19.1554 49.6389 19.5745 49.3355C19.6507 49.2597 19.765 49.2597 19.8412 49.2976C32.9463 55.2512 47.08 55.2512 60.0327 49.2976C60.1089 49.2597 60.2232 49.2597 60.2994 49.3355C60.7185 49.6768 61.1375 49.9802 61.5566 50.3215C61.709 50.4352 61.709 50.6628 61.5185 50.7386C59.5375 51.9142 57.4422 52.8622 55.2707 53.6965C55.1183 53.7344 55.0802 53.924 55.1183 54.0378C56.3374 56.3509 57.7089 58.5504 59.1946 60.636C59.3089 60.6739 59.4232 60.7119 59.5375 60.6739C66.09 58.6641 72.6807 55.6304 79.538 50.6249C79.6142 50.5869 79.6523 50.5111 79.6523 50.4352C81.3286 33.257 76.8713 18.354 67.8425 5.11952C67.8044 5.0816 67.7663 5.04368 67.6901 5.04368ZM26.7366 41.3721C22.8127 41.3721 19.5364 37.7696 19.5364 33.3328C19.5364 28.8961 22.7365 25.2936 26.7366 25.2936C30.7748 25.2936 33.9749 28.934 33.9368 33.3328C33.9368 37.7696 30.7367 41.3721 26.7366 41.3721ZM53.2897 41.3721C49.3658 41.3721 46.0895 37.7696 46.0895 33.3328C46.0895 28.8961 49.2896 25.2936 53.2897 25.2936C57.3279 25.2936 60.528 28.934 60.4899 33.3328C60.4899 37.7696 57.3279 41.3721 53.2897 41.3721Z" fill="url(#paint0_linear_16_117)" fill-opacity="0.76999"/>
<defs>
<linearGradient id="paint0_linear_16_117" x1="0" y1="30.3448" x2="80" y2="30.3448" gradientUnits="userSpaceOnUse">
<stop stop-color="#D0A660"/>
<stop offset="0.445017" stop-color="#FFDF8C"/>
<stop offset="1" stop-color="#D09742"/>
</linearGradient>
</defs>
</svg>
