<svg width="188" height="41" viewBox="0 0 188 41" fill="none" xmlns="http://www.w3.org/2000/svg">
<path d="M119 21C119 19.8954 119.895 19 121 19H186C187.105 19 188 19.8954 188 21C188 22.1046 187.105 23 186 23H121C119.895 23 119 22.1046 119 21Z" fill="url(#paint0_linear_78_310)"/>
<path d="M0 21C0 19.8954 0.895431 19 2 19H67C68.1046 19 69 19.8954 69 21C69 22.1046 68.1046 23 67 23H2C0.89543 23 0 22.1046 0 21Z" fill="url(#paint1_linear_78_310)"/>
<path d="M93.4858 1.15863e-05C93.4412 0.000967905 93.3967 0.00512979 93.3527 0.0124644H91.9962C91.8876 0.0124644 91.7555 0.0131745 91.6095 0.0231382C85.5975 0.195773 80.5062 4.4787 79.3566 10.2736L77.894 10.8624C77.8461 10.8815 77.7979 10.9072 77.7537 10.9336C76.851 11.4883 76.2348 12.3896 76.0663 13.3779C76.0119 13.6448 75.9913 13.9086 76.0033 14.15L76.1508 18.7771C76.1913 19.7772 76.7785 20.6744 77.6278 21.0915L78.3474 21.5096C78.2224 24.3123 78.1957 26.8516 78.2916 28.7678V28.7696C78.3059 29.0381 78.3612 29.2891 78.4391 29.5203C78.6388 30.1127 79.0479 30.605 79.5707 30.9363C79.5754 30.9394 79.5802 30.9423 79.5851 30.9452C80.3246 31.3966 81.3887 31.9247 82.5552 32.4574C82.6839 33.2481 83.0549 34.0282 83.577 34.8216C84.2233 35.8036 85.1091 36.7951 86.1442 37.6982C88.2143 39.5045 90.8758 41 93.547 41C96.2181 41 98.8778 39.5045 100.948 37.6982C101.983 36.7951 102.869 35.8036 103.515 34.8216C104.038 34.027 104.41 33.2457 104.539 32.4538C105.703 31.922 106.765 31.3959 107.503 30.9452L107.507 30.9417C108.274 30.4675 108.753 29.6498 108.795 28.7678C108.892 26.8396 108.866 24.2818 108.739 21.458L109.32 21.12C110.223 20.6737 110.81 19.7747 110.851 18.7664L110.997 14.1624C111.008 13.9083 110.987 13.6441 110.94 13.4046C110.766 12.389 110.149 11.4892 109.247 10.9336C109.202 10.9072 109.156 10.8815 109.108 10.8624L107.736 10.3109C106.6 4.49733 101.502 0.196139 95.4773 0.0231382C95.3313 0.0131744 95.1991 0.0124644 95.0905 0.0124644H93.6423C93.5906 0.00391612 93.5382 -0.000249933 93.4858 1.15863e-05ZM91.9962 1.83413H92.5791V10.9425C92.5774 11.0632 92.5999 11.183 92.6455 11.295C92.691 11.407 92.7585 11.509 92.8442 11.5949C92.9299 11.6809 93.0321 11.7491 93.1447 11.7957C93.2573 11.8423 93.3781 11.8663 93.5002 11.8663C93.6223 11.8663 93.7431 11.8423 93.8557 11.7957C93.9683 11.7491 94.0704 11.6809 94.1561 11.5949C94.2418 11.509 94.3094 11.407 94.3549 11.295C94.4004 11.183 94.423 11.0632 94.4213 10.9425V1.83413H95.0905C95.1252 1.83413 95.1391 1.83571 95.1696 1.83591L96.2023 13.4828C95.1195 13.6108 94.1886 13.675 93.5434 13.675C92.8818 13.675 91.9164 13.605 90.7981 13.4704L91.8307 1.83769C91.8827 1.83646 91.9238 1.83413 91.9962 1.83413ZM97.0352 2.01737C101.538 2.80567 105.15 6.28503 105.96 10.8286C105.957 10.8494 105.95 10.8701 105.949 10.8909C103.651 12.0414 100.628 12.79 98.0282 13.2196L97.0352 2.01737ZM89.9652 2.0316L88.974 13.2053C86.3847 12.7722 83.3942 12.0242 81.1178 10.8802C81.9036 6.34007 85.4847 2.85216 89.9652 2.0316ZM80.8983 12.7126C85.2602 14.7459 90.9114 15.4966 93.5434 15.4966C96.1752 15.4966 101.827 14.7455 106.188 12.7126C106.343 14.0832 106.483 15.4535 106.591 16.8077C100.747 18.4607 96.7874 24.5555 96.4181 33.3184C95.8426 33.4421 95.2695 33.559 94.7577 33.619L95.6068 23.011C95.7542 21.2076 96.9609 19.6682 98.6741 19.067L103.702 17.3272C104.55 17.0357 105.204 16.3526 105.453 15.5055L105.978 13.675C99.9909 16.4075 95.3855 16.4075 93.5434 16.4075C92.6315 16.4075 91.038 16.4083 88.938 16.0713C88.0906 15.9437 87.1695 15.7519 86.1747 15.4878C85.8708 15.4149 85.5668 15.3335 85.2537 15.2334C84.6642 15.0603 84.047 14.8582 83.4115 14.6214C82.6746 14.3481 81.9009 14.0393 81.1088 13.675L81.6341 15.5055C81.8828 16.3526 82.5371 17.0357 83.3845 17.3272L83.4115 17.3361L85.2537 17.9748L86.1747 18.2932L88.4127 19.067C88.5969 19.1308 88.7722 19.2039 88.938 19.2859C90.3656 19.9963 91.351 21.3988 91.4799 23.011L92.3291 33.619C91.8173 33.559 91.2442 33.4421 90.6686 33.3184C90.2993 24.555 86.3403 18.4603 80.4954 16.8077C80.6035 15.4535 80.7433 14.0832 80.8983 12.7126ZM80.355 18.6134C85.0375 20.1196 88.4384 25.0925 88.8768 32.8879C85.6247 31.9415 82.1609 30.3745 80.5655 29.4029C80.3699 29.2789 80.2441 29.1166 80.1859 28.9439C80.1537 28.8484 80.1364 28.7541 80.132 28.6771V28.6735C80.0088 26.2106 80.09 22.5647 80.355 18.6134ZM106.732 18.6134C106.784 19.396 106.835 20.1753 106.872 20.9261C106.869 20.9951 106.868 21.0617 106.881 21.1307C107.023 24.0866 107.051 26.7477 106.955 28.6771V28.6806C106.941 28.9814 106.794 29.2348 106.53 29.3975C104.938 30.3689 101.467 31.94 98.2099 32.8879C98.6484 25.0925 102.049 20.1196 106.732 18.6134ZM102.186 33.4625C102.116 33.5837 102.052 33.7035 101.97 33.829C101.436 34.6402 100.652 35.5273 99.7301 36.332C97.8856 37.9413 95.4812 39.1783 93.547 39.1783C91.6127 39.1783 89.2065 37.9413 87.3621 36.332C86.4399 35.5273 85.6562 34.6402 85.1223 33.829C85.0406 33.7048 84.9787 33.5861 84.9101 33.466C86.4255 34.0535 88.0468 34.5922 89.618 34.9764C89.6216 34.9776 89.6252 34.9788 89.6288 34.98C90.5461 35.2044 91.4518 35.3752 92.3021 35.4549C92.7426 35.5147 93.1583 35.535 93.5434 35.535C93.9279 35.535 94.3448 35.5145 94.7847 35.4549C95.635 35.3752 96.5406 35.2044 97.458 34.98C99.0355 34.5948 100.664 34.0526 102.186 33.4625Z" fill="url(#paint2_linear_78_310)"/>
<defs>
<linearGradient id="paint0_linear_78_310" x1="119" y1="21" x2="188" y2="21" gradientUnits="userSpaceOnUse">
<stop stop-color="#D09742"/>
<stop offset="0.475" stop-color="#FFDA7C"/>
<stop offset="1" stop-color="#905803"/>
</linearGradient>
<linearGradient id="paint1_linear_78_310" x1="0" y1="21" x2="69" y2="21" gradientUnits="userSpaceOnUse">
<stop stop-color="#D09742"/>
<stop offset="0.475" stop-color="#FFDA7C"/>
<stop offset="1" stop-color="#905803"/>
</linearGradient>
<linearGradient id="paint2_linear_78_310" x1="93.5" y1="0" x2="93.5" y2="41" gradientUnits="userSpaceOnUse">
<stop stop-color="#D09742"/>
<stop offset="0.54" stop-color="#FFDA7C"/>
<stop offset="1" stop-color="#D09742"/>
</linearGradient>
</defs>
</svg>
