<svg width="514" height="104" viewBox="0 0 514 104" fill="none" xmlns="http://www.w3.org/2000/svg">
<path d="M1 28.625C31.7761 25.684 43.0831 20.5319 45.6253 1H467.087C466.452 22.2095 478.381 27.5118 513.365 29.6875V74.3125C479.236 75.6241 469.387 81.9502 467.087 103H45.6253C45.2728 83.8931 36.1997 77.5167 1 75.375V29.6875" stroke="url(#paint0_linear_78_328)"/>
<rect x="14.7236" y="12.125" width="484.92" height="79.75" stroke="url(#paint1_linear_78_328)"/>
<path d="M132.014 69.432C130.51 69.432 129.038 69.304 127.598 69.048C126.158 68.792 124.814 68.424 123.566 67.944C122.35 67.464 121.246 66.856 120.254 66.12C119.87 65.832 119.598 65.512 119.438 65.16C119.31 64.776 119.278 64.408 119.342 64.056C119.438 63.672 119.598 63.352 119.822 63.096C120.078 62.84 120.382 62.696 120.734 62.664C121.086 62.632 121.47 62.744 121.886 63C123.326 64.024 124.862 64.776 126.494 65.256C128.126 65.704 129.966 65.928 132.014 65.928C134.894 65.928 137.022 65.4 138.398 64.344C139.806 63.256 140.51 61.832 140.51 60.072C140.51 58.632 139.998 57.512 138.974 56.712C137.982 55.88 136.302 55.224 133.934 54.744L128.942 53.736C125.934 53.096 123.678 52.056 122.174 50.616C120.702 49.144 119.966 47.192 119.966 44.76C119.966 43.256 120.27 41.896 120.878 40.68C121.486 39.432 122.334 38.376 123.422 37.512C124.51 36.616 125.806 35.928 127.31 35.448C128.814 34.968 130.478 34.728 132.302 34.728C134.318 34.728 136.19 35.016 137.918 35.592C139.678 36.136 141.262 36.968 142.67 38.088C143.022 38.376 143.262 38.712 143.39 39.096C143.518 39.448 143.534 39.8 143.438 40.152C143.342 40.472 143.166 40.744 142.91 40.968C142.686 41.192 142.382 41.32 141.998 41.352C141.646 41.384 141.246 41.256 140.798 40.968C139.518 40.008 138.19 39.32 136.814 38.904C135.438 38.456 133.918 38.232 132.254 38.232C130.558 38.232 129.086 38.488 127.838 39C126.622 39.512 125.662 40.264 124.958 41.256C124.286 42.216 123.95 43.336 123.95 44.616C123.95 46.152 124.414 47.368 125.342 48.264C126.302 49.16 127.854 49.816 129.998 50.232L134.99 51.288C138.222 51.96 140.606 52.984 142.142 54.36C143.71 55.704 144.494 57.544 144.494 59.88C144.494 61.288 144.206 62.584 143.63 63.768C143.054 64.952 142.222 65.976 141.134 66.84C140.046 67.672 138.734 68.312 137.198 68.76C135.662 69.208 133.934 69.432 132.014 69.432ZM152.761 69C152.057 69 151.513 68.824 151.129 68.472C150.777 68.088 150.601 67.544 150.601 66.84V37.32C150.601 36.616 150.777 36.088 151.129 35.736C151.513 35.352 152.057 35.16 152.761 35.16H170.617C171.161 35.16 171.577 35.304 171.865 35.592C172.153 35.88 172.297 36.28 172.297 36.792C172.297 37.336 172.153 37.752 171.865 38.04C171.577 38.328 171.161 38.472 170.617 38.472H154.441V50.184H169.609C170.153 50.184 170.569 50.328 170.857 50.616C171.145 50.872 171.289 51.272 171.289 51.816C171.289 52.36 171.145 52.776 170.857 53.064C170.569 53.352 170.153 53.496 169.609 53.496H154.441V65.688H170.617C171.161 65.688 171.577 65.832 171.865 66.12C172.153 66.408 172.297 66.808 172.297 67.32C172.297 67.864 172.153 68.28 171.865 68.568C171.577 68.856 171.161 69 170.617 69H152.761ZM180.746 69C180.042 69 179.498 68.824 179.114 68.472C178.762 68.088 178.586 67.544 178.586 66.84V37.32C178.586 36.616 178.762 36.088 179.114 35.736C179.498 35.352 180.042 35.16 180.746 35.16H198.602C199.146 35.16 199.562 35.304 199.85 35.592C200.138 35.88 200.282 36.28 200.282 36.792C200.282 37.336 200.138 37.752 199.85 38.04C199.562 38.328 199.146 38.472 198.602 38.472H182.426V50.184H197.594C198.138 50.184 198.554 50.328 198.842 50.616C199.13 50.872 199.274 51.272 199.274 51.816C199.274 52.36 199.13 52.776 198.842 53.064C198.554 53.352 198.138 53.496 197.594 53.496H182.426V65.688H198.602C199.146 65.688 199.562 65.832 199.85 66.12C200.138 66.408 200.282 66.808 200.282 67.32C200.282 67.864 200.138 68.28 199.85 68.568C199.562 68.856 199.146 69 198.602 69H180.746ZM221.105 69C220.401 69 219.857 68.824 219.473 68.472C219.121 68.088 218.945 67.544 218.945 66.84V37.32C218.945 36.616 219.121 36.088 219.473 35.736C219.857 35.352 220.401 35.16 221.105 35.16H238.961C239.505 35.16 239.921 35.304 240.209 35.592C240.497 35.88 240.641 36.28 240.641 36.792C240.641 37.336 240.497 37.752 240.209 38.04C239.921 38.328 239.505 38.472 238.961 38.472H222.785V50.184H237.953C238.497 50.184 238.913 50.328 239.201 50.616C239.489 50.872 239.633 51.272 239.633 51.816C239.633 52.36 239.489 52.776 239.201 53.064C238.913 53.352 238.497 53.496 237.953 53.496H222.785V65.688H238.961C239.505 65.688 239.921 65.832 240.209 66.12C240.497 66.408 240.641 66.808 240.641 67.32C240.641 67.864 240.497 68.28 240.209 68.568C239.921 68.856 239.505 69 238.961 69H221.105ZM258.985 69.336C258.377 69.336 257.881 69.192 257.497 68.904C257.113 68.616 256.809 68.184 256.585 67.608L243.385 37.416C243.161 36.872 243.097 36.424 243.193 36.072C243.289 35.688 243.497 35.384 243.817 35.16C244.169 34.936 244.569 34.824 245.017 34.824C245.625 34.824 246.073 34.968 246.361 35.256C246.681 35.512 246.937 35.896 247.129 36.408L259.801 65.832H258.265L270.889 36.36C271.113 35.88 271.385 35.512 271.705 35.256C272.025 34.968 272.473 34.824 273.049 34.824C273.497 34.824 273.865 34.936 274.153 35.16C274.473 35.384 274.665 35.688 274.729 36.072C274.825 36.456 274.761 36.904 274.537 37.416L261.337 67.608C261.113 68.184 260.809 68.616 260.425 68.904C260.073 69.192 259.593 69.336 258.985 69.336ZM281.855 69C281.151 69 280.607 68.824 280.223 68.472C279.871 68.088 279.695 67.544 279.695 66.84V37.32C279.695 36.616 279.871 36.088 280.223 35.736C280.607 35.352 281.151 35.16 281.855 35.16H299.711C300.255 35.16 300.671 35.304 300.959 35.592C301.247 35.88 301.391 36.28 301.391 36.792C301.391 37.336 301.247 37.752 300.959 38.04C300.671 38.328 300.255 38.472 299.711 38.472H283.535V50.184H298.703C299.247 50.184 299.663 50.328 299.951 50.616C300.239 50.872 300.383 51.272 300.383 51.816C300.383 52.36 300.239 52.776 299.951 53.064C299.663 53.352 299.247 53.496 298.703 53.496H283.535V65.688H299.711C300.255 65.688 300.671 65.832 300.959 66.12C301.247 66.408 301.391 66.808 301.391 67.32C301.391 67.864 301.247 68.28 300.959 68.568C300.671 68.856 300.255 69 299.711 69H281.855ZM309.551 69.336C308.943 69.336 308.479 69.176 308.159 68.856C307.839 68.504 307.679 68.008 307.679 67.368V36.84C307.679 36.2 307.839 35.704 308.159 35.352C308.479 35 308.895 34.824 309.407 34.824C309.919 34.824 310.287 34.92 310.511 35.112C310.767 35.272 311.055 35.576 311.375 36.024L332.303 63.912H331.151V36.744C331.151 36.136 331.311 35.672 331.631 35.352C331.951 35 332.415 34.824 333.023 34.824C333.599 34.824 334.031 35 334.319 35.352C334.639 35.672 334.799 36.136 334.799 36.744V67.416C334.799 68.024 334.655 68.504 334.367 68.856C334.111 69.176 333.727 69.336 333.215 69.336C332.735 69.336 332.351 69.24 332.063 69.048C331.775 68.856 331.471 68.552 331.151 68.136L310.271 40.248H311.375V67.368C311.375 68.008 311.215 68.504 310.895 68.856C310.575 69.176 310.127 69.336 309.551 69.336ZM353.483 69.336C352.875 69.336 352.395 69.16 352.043 68.808C351.691 68.424 351.515 67.912 351.515 67.272V38.568H340.715C340.139 38.568 339.691 38.408 339.371 38.088C339.051 37.768 338.891 37.352 338.891 36.84C338.891 36.296 339.051 35.88 339.371 35.592C339.691 35.304 340.139 35.16 340.715 35.16H366.299C366.875 35.16 367.323 35.304 367.643 35.592C367.963 35.88 368.123 36.296 368.123 36.84C368.123 37.384 367.963 37.816 367.643 38.136C367.323 38.424 366.875 38.568 366.299 38.568H355.499V67.272C355.499 67.912 355.323 68.424 354.971 68.808C354.651 69.16 354.155 69.336 353.483 69.336ZM381.858 69.432C380.354 69.432 378.882 69.304 377.442 69.048C376.002 68.792 374.658 68.424 373.41 67.944C372.194 67.464 371.09 66.856 370.098 66.12C369.714 65.832 369.442 65.512 369.282 65.16C369.154 64.776 369.122 64.408 369.186 64.056C369.282 63.672 369.442 63.352 369.666 63.096C369.922 62.84 370.226 62.696 370.578 62.664C370.93 62.632 371.314 62.744 371.73 63C373.17 64.024 374.706 64.776 376.338 65.256C377.97 65.704 379.81 65.928 381.858 65.928C384.738 65.928 386.866 65.4 388.242 64.344C389.65 63.256 390.354 61.832 390.354 60.072C390.354 58.632 389.842 57.512 388.818 56.712C387.826 55.88 386.146 55.224 383.778 54.744L378.786 53.736C375.778 53.096 373.522 52.056 372.018 50.616C370.546 49.144 369.81 47.192 369.81 44.76C369.81 43.256 370.114 41.896 370.722 40.68C371.33 39.432 372.178 38.376 373.266 37.512C374.354 36.616 375.65 35.928 377.154 35.448C378.658 34.968 380.322 34.728 382.146 34.728C384.162 34.728 386.034 35.016 387.762 35.592C389.522 36.136 391.106 36.968 392.514 38.088C392.866 38.376 393.106 38.712 393.234 39.096C393.362 39.448 393.378 39.8 393.282 40.152C393.186 40.472 393.01 40.744 392.754 40.968C392.53 41.192 392.226 41.32 391.842 41.352C391.49 41.384 391.09 41.256 390.642 40.968C389.362 40.008 388.034 39.32 386.658 38.904C385.282 38.456 383.762 38.232 382.098 38.232C380.402 38.232 378.93 38.488 377.682 39C376.466 39.512 375.506 40.264 374.802 41.256C374.13 42.216 373.794 43.336 373.794 44.616C373.794 46.152 374.258 47.368 375.186 48.264C376.146 49.16 377.698 49.816 379.842 50.232L384.834 51.288C388.066 51.96 390.45 52.984 391.986 54.36C393.554 55.704 394.338 57.544 394.338 59.88C394.338 61.288 394.05 62.584 393.474 63.768C392.898 64.952 392.066 65.976 390.978 66.84C389.89 67.672 388.578 68.312 387.042 68.76C385.506 69.208 383.778 69.432 381.858 69.432Z" fill="white"/>
<defs>
<linearGradient id="paint0_linear_78_328" x1="1" y1="52" x2="513.365" y2="52" gradientUnits="userSpaceOnUse">
<stop stop-color="#D09742"/>
<stop offset="0.444974" stop-color="#D0A660" stop-opacity="0.76999"/>
<stop offset="0.9998" stop-color="#905803"/>
</linearGradient>
<linearGradient id="paint1_linear_78_328" x1="14.2236" y1="52" x2="500.144" y2="52" gradientUnits="userSpaceOnUse">
<stop stop-color="#D09742"/>
<stop offset="0.444974" stop-color="#D0A660" stop-opacity="0.76999"/>
<stop offset="0.9998" stop-color="#905803"/>
</linearGradient>
</defs>
</svg>
