<svg width="61" height="69" viewBox="0 0 61 69" fill="none" xmlns="http://www.w3.org/2000/svg">
<path d="M42.1351 27.3815L50.753 36.5297C52.1514 37.9944 53.2631 39.7383 54.024 41.661C54.7849 43.5837 55.18 45.6471 55.1866 47.7325C55.1932 49.818 54.8111 51.8842 54.0623 53.8122C53.3136 55.7403 52.213 57.492 50.8238 58.9666C49.4347 60.4413 47.7845 61.6096 45.9682 62.4045C44.1519 63.1993 42.2055 63.6049 40.241 63.5979C38.2764 63.5909 36.3326 63.1715 34.5214 62.3638C32.7102 61.556 31.0674 60.376 29.6876 58.8915L26.8168 55.844C26.4286 55.4464 26.1189 54.9706 25.9057 54.4446C25.6926 53.9186 25.5803 53.3528 25.5753 52.7801C25.5704 52.2075 25.6729 51.6396 25.877 51.1095C26.081 50.5794 26.3824 50.0978 26.7637 49.6927C27.1449 49.2876 27.5984 48.9672 28.0975 48.7501C28.5967 48.533 29.1316 48.4236 29.671 48.4283C30.2104 48.433 30.7436 48.5517 31.2393 48.7775C31.7351 49.0032 32.1835 49.3315 32.5584 49.7432L35.4347 52.7936C36.7065 54.1316 38.4259 54.8803 40.2165 54.8758C42.0071 54.8714 43.7231 54.1142 44.9891 52.77C46.255 51.4257 46.9678 49.6039 46.9715 47.7031C46.9752 45.8023 46.2694 43.9773 45.0086 42.6276L36.3907 33.4794C35.4592 32.4901 34.2761 31.8109 32.9864 31.5249C31.6966 31.2389 30.3563 31.3586 29.1297 31.8694C28.6909 32.0534 28.2847 32.2431 27.9001 32.4329L26.6434 33.0567C24.9643 33.8617 23.6724 34.2067 22.0284 32.4645C19.6667 29.9575 20.2788 27.6431 23.1578 25.5357C26.026 23.442 29.4943 22.4802 32.9607 22.8174C36.4272 23.1545 39.673 24.7693 42.1351 27.3815ZM25.858 10.1027L28.7288 13.1502C29.4692 13.9632 29.8792 15.0523 29.8704 16.1831C29.8617 17.3138 29.4349 18.3957 28.6821 19.1956C27.9292 19.9956 26.9105 20.4496 25.8453 20.46C24.7801 20.4703 23.7537 20.0362 22.9872 19.251L20.1136 16.2035C19.4892 15.5168 18.7422 14.969 17.9163 14.5921C17.0903 14.2152 16.2019 14.0166 15.3029 14.0081C14.4038 13.9995 13.5122 14.1811 12.68 14.5422C11.8478 14.9034 11.0917 15.4368 10.4558 16.1115C9.81987 16.7862 9.3169 17.5885 8.97622 18.4717C8.63554 19.3549 8.46397 20.3013 8.47153 21.2557C8.47909 22.21 8.66562 23.1532 9.02023 24.0302C9.37485 24.9072 9.89046 25.7005 10.537 26.3637L19.1549 35.512C20.0863 36.5012 21.2695 37.1804 22.5592 37.4664C23.849 37.7524 25.1893 37.6327 26.4159 37.122C26.8547 36.938 27.2609 36.7482 27.6455 36.5585L28.9022 35.9346C30.5813 35.1296 31.8759 34.7846 33.5172 36.5269C35.8788 39.0339 35.2668 41.3482 32.3878 43.4556C29.5196 45.5494 26.0513 46.5111 22.5849 46.174C19.1184 45.8368 15.8726 44.222 13.4105 41.6099L4.79258 32.4616C3.39416 30.9969 2.28249 29.253 1.52158 27.3303C0.760673 25.4077 0.365552 23.3442 0.35897 21.2588C0.352389 19.1734 0.734477 17.1071 1.48324 15.1791C2.23199 13.2511 3.33263 11.4993 4.72178 10.0247C6.11092 8.55005 7.76113 7.38169 9.57739 6.58685C11.3937 5.79201 13.3401 5.38641 15.3046 5.3934C17.2692 5.40039 19.213 5.81982 21.0242 6.62756C22.8354 7.43529 24.4782 8.61825 25.858 10.1027Z" fill="url(#paint0_linear_16_126)" fill-opacity="0.76999"/>
<defs>
<linearGradient id="paint0_linear_16_126" x1="0.358887" y1="34.4957" x2="55.1867" y2="34.4957" gradientUnits="userSpaceOnUse">
<stop stop-color="#D0A660"/>
<stop offset="0.445017" stop-color="#FFDF8C"/>
<stop offset="1" stop-color="#D09742"/>
</linearGradient>
</defs>
</svg>
