<svg width="80" height="80" viewBox="0 0 80 80" fill="none" xmlns="http://www.w3.org/2000/svg">
<path d="M44.112 0.00492133C47.0308 -0.00627899 49.9496 0.023056 52.8676 0.0929171L53.6436 0.120916C54.5395 0.152914 55.4235 0.192912 56.4914 0.240909C60.7472 0.440899 63.651 1.11287 66.1989 2.10081C68.8388 3.11676 71.0627 4.49269 73.2866 6.71658C75.3199 8.7149 76.8937 11.1321 77.8983 13.8002C78.8863 16.3481 79.5582 19.2559 79.7582 23.5117C79.8062 24.5757 79.8462 25.4636 79.8782 26.3596L79.9022 27.1355C79.9733 30.0521 80.0039 32.9696 79.9942 35.8871L79.9982 38.8709V44.1107C80.0081 47.0295 79.9774 49.9483 79.9062 52.8662L79.8822 53.6422C79.8502 54.5381 79.8102 55.4221 79.7622 56.49C79.5622 60.7458 78.8823 63.6497 77.8983 66.1975C76.897 68.8684 75.3228 71.2877 73.2866 73.2852C71.2865 75.3183 68.868 76.892 66.1989 77.8969C63.651 78.8849 60.7472 79.5568 56.4914 79.7568C55.4235 79.8048 54.5395 79.8448 53.6436 79.8768L52.8676 79.9008C49.9496 79.9719 47.0308 80.0026 44.112 79.9928L41.1282 79.9968H35.8925C32.9737 80.0067 30.0549 79.976 27.1369 79.9048L26.361 79.8808C25.4114 79.8464 24.4621 79.8064 23.5131 79.7608C19.2573 79.5608 16.3535 78.8809 13.8016 77.8969C11.1325 76.8943 8.71481 75.3203 6.71796 73.2852C4.68225 71.2864 3.10705 68.8676 2.1022 66.1975C1.11425 63.6497 0.442285 60.7458 0.242295 56.49C0.197749 55.5409 0.157751 54.5916 0.122302 53.6422L0.102303 52.8662C0.0285613 49.9483 -0.00477394 47.0295 0.00230788 44.1107V35.8871C-0.00885541 32.9696 0.0204795 30.0522 0.0903037 27.1355L0.118302 26.3596C0.1503 25.4636 0.190298 24.5757 0.238296 23.5117C0.438286 19.2519 1.11025 16.3521 2.0982 13.8002C3.10364 11.1308 4.68192 8.71425 6.72196 6.72058C8.71744 4.68369 11.1336 3.10705 13.8016 2.10081C16.3535 1.11287 19.2533 0.440899 23.5131 0.240909L26.361 0.120916L27.1369 0.100917C30.0535 0.0272121 32.971 -0.00612309 35.8885 0.000921824L44.112 0.00492133ZM40.0003 20.0039C37.3504 19.9664 34.7196 20.456 32.2606 21.4441C29.8016 22.4322 27.5635 23.8992 25.6764 25.7598C23.7893 27.6204 22.2908 29.8375 21.268 32.2823C20.2452 34.7271 19.7185 37.3508 19.7185 40.0009C19.7185 42.651 20.2452 45.2746 21.268 47.7194C22.2908 50.1642 23.7893 52.3813 25.6764 54.2419C27.5635 56.1025 29.8016 57.5695 32.2606 58.5576C34.7196 59.5458 37.3504 60.0353 40.0003 59.9978C45.3043 59.9978 50.3911 57.8908 54.1417 54.1403C57.8922 50.3897 59.9992 45.3029 59.9992 39.9989C59.9992 34.6948 57.8922 29.608 54.1417 25.8575C50.3911 22.1069 45.3043 20.0039 40.0003 20.0039ZM40.0003 28.0035C41.5942 27.9741 43.178 28.2627 44.6592 28.8523C46.1404 29.4419 47.4892 30.3207 48.6269 31.4375C49.7646 32.5542 50.6684 33.8865 51.2854 35.3565C51.9025 36.8264 52.2204 38.4046 52.2207 39.9988C52.221 41.593 51.9035 43.1713 51.287 44.6415C50.6704 46.1117 49.7671 47.4442 48.6298 48.5614C47.4924 49.6785 46.1439 50.5578 44.6629 51.1479C43.1819 51.738 41.5982 52.0271 40.0043 51.9983C36.8218 51.9983 33.7697 50.734 31.5194 48.4837C29.2691 46.2334 28.0049 43.1813 28.0049 39.9989C28.0049 36.8164 29.2691 33.7643 31.5194 31.514C33.7697 29.2637 36.8218 27.9995 40.0043 27.9995L40.0003 28.0035ZM60.9992 14.0042C59.7088 14.0558 58.4885 14.6048 57.5938 15.536C56.6991 16.4672 56.1994 17.7085 56.1994 18.9999C56.1994 20.2913 56.6991 21.5326 57.5938 22.4639C58.4885 23.3951 59.7088 23.944 60.9992 23.9957C62.3252 23.9957 63.5969 23.4689 64.5345 22.5313C65.4722 21.5937 65.9989 20.322 65.9989 18.9959C65.9989 17.6699 65.4722 16.3982 64.5345 15.4606C63.5969 14.523 62.3252 13.9962 60.9992 13.9962V14.0042Z" fill="url(#paint0_linear_16_120)" fill-opacity="0.76999"/>
<defs>
<linearGradient id="paint0_linear_16_120" x1="0" y1="39.9993" x2="80" y2="39.9993" gradientUnits="userSpaceOnUse">
<stop stop-color="#D0A660"/>
<stop offset="0.445017" stop-color="#FFDF8C"/>
<stop offset="1" stop-color="#D09742"/>
</linearGradient>
</defs>
</svg>
