<svg width="182" height="58" viewBox="0 0 182 58" fill="none" xmlns="http://www.w3.org/2000/svg">
<path d="M1 16.0968C11.812 14.4896 15.7843 11.674 16.6774 1H164.742C164.519 12.5908 168.71 15.4884 181 16.6774V41.0645C169.01 41.7813 165.55 45.2384 164.742 56.7419H16.6774C16.5536 46.3002 13.3661 42.8156 1 41.6452V16.6774" stroke="url(#paint0_linear_78_151)"/>
<rect x="6.14514" y="7.30664" width="169.71" height="43.129" stroke="url(#paint1_linear_78_151)"/>
<path d="M56.924 40.198C56.506 40.22 56.187 40.11 55.967 39.868C55.725 39.626 55.604 39.329 55.604 38.977C55.604 38.713 55.692 38.471 55.868 38.251C56.022 38.031 56.275 37.91 56.627 37.888L57.65 37.822C58.772 37.734 59.63 37.349 60.224 36.667C60.818 35.963 61.115 35.006 61.115 33.796V17.89C61.115 17.428 61.225 17.087 61.445 16.867C61.687 16.625 62.028 16.504 62.468 16.504C62.908 16.504 63.238 16.625 63.458 16.867C63.7 17.087 63.821 17.428 63.821 17.89V33.829C63.821 35.083 63.601 36.172 63.161 37.096C62.721 37.998 62.061 38.702 61.181 39.208C60.323 39.714 59.267 40.011 58.013 40.099L56.924 40.198ZM79.3382 40.297C77.1822 40.297 75.3012 39.813 73.6952 38.845C72.1112 37.855 70.8792 36.469 69.9992 34.687C69.1412 32.905 68.7122 30.793 68.7122 28.351C68.7122 26.503 68.9542 24.853 69.4382 23.401C69.9442 21.927 70.6592 20.684 71.5832 19.672C72.5072 18.638 73.6182 17.846 74.9162 17.296C76.2362 16.724 77.7102 16.438 79.3382 16.438C81.5382 16.438 83.4302 16.922 85.0142 17.89C86.6202 18.858 87.8522 20.233 88.7102 22.015C89.5902 23.775 90.0302 25.876 90.0302 28.318C90.0302 30.166 89.7772 31.827 89.2712 33.301C88.7652 34.775 88.0502 36.029 87.1262 37.063C86.2022 38.097 85.0802 38.9 83.7602 39.472C82.4622 40.022 80.9882 40.297 79.3382 40.297ZM79.3382 37.888C81.0102 37.888 82.4182 37.514 83.5622 36.766C84.7282 36.018 85.6192 34.929 86.2352 33.499C86.8512 32.069 87.1592 30.353 87.1592 28.351C87.1592 25.337 86.4772 23.005 85.1132 21.355C83.7712 19.683 81.8462 18.847 79.3382 18.847C77.7102 18.847 76.3132 19.221 75.1472 19.969C74.0032 20.717 73.1232 21.806 72.5072 23.236C71.8912 24.644 71.5832 26.349 71.5832 28.351C71.5832 31.343 72.2652 33.686 73.6292 35.38C74.9932 37.052 76.8962 37.888 79.3382 37.888ZM96.2211 40.231C95.7811 40.231 95.4401 40.11 95.1981 39.868C94.9781 39.604 94.8681 39.252 94.8681 38.812V17.923C94.8681 17.461 94.9781 17.109 95.1981 16.867C95.4401 16.625 95.7811 16.504 96.2211 16.504C96.6611 16.504 96.9911 16.625 97.2111 16.867C97.4531 17.109 97.5741 17.461 97.5741 17.923V38.812C97.5741 39.252 97.4641 39.604 97.2441 39.868C97.0241 40.11 96.6831 40.231 96.2211 40.231ZM104.631 40.231C104.213 40.231 103.894 40.121 103.674 39.901C103.454 39.659 103.344 39.318 103.344 38.878V17.89C103.344 17.45 103.454 17.109 103.674 16.867C103.894 16.625 104.18 16.504 104.532 16.504C104.884 16.504 105.137 16.57 105.291 16.702C105.467 16.812 105.665 17.021 105.885 17.329L120.273 36.502H119.481V17.824C119.481 17.406 119.591 17.087 119.811 16.867C120.031 16.625 120.35 16.504 120.768 16.504C121.164 16.504 121.461 16.625 121.659 16.867C121.879 17.087 121.989 17.406 121.989 17.824V38.911C121.989 39.329 121.89 39.659 121.692 39.901C121.516 40.121 121.252 40.231 120.9 40.231C120.57 40.231 120.306 40.165 120.108 40.033C119.91 39.901 119.701 39.692 119.481 39.406L105.126 20.233H105.885V38.878C105.885 39.318 105.775 39.659 105.555 39.901C105.335 40.121 105.027 40.231 104.631 40.231Z" fill="white"/>
<defs>
<linearGradient id="paint0_linear_78_151" x1="1" y1="28.871" x2="181" y2="28.871" gradientUnits="userSpaceOnUse">
<stop stop-color="#D09742"/>
<stop offset="0.444974" stop-color="#D0A660" stop-opacity="0.76999"/>
<stop offset="0.9998" stop-color="#905803"/>
</linearGradient>
<linearGradient id="paint1_linear_78_151" x1="5.64514" y1="28.8712" x2="176.355" y2="28.8712" gradientUnits="userSpaceOnUse">
<stop stop-color="#D09742"/>
<stop offset="0.444974" stop-color="#D0A660" stop-opacity="0.76999"/>
<stop offset="0.9998" stop-color="#905803"/>
</linearGradient>
</defs>
</svg>
