<svg width="672" height="131" viewBox="0 0 672 131" fill="none" xmlns="http://www.w3.org/2000/svg">
<rect y="17.1279" width="670.139" height="113.673" rx="10" fill="url(#paint0_linear_0_1)"/>
<g filter="url(#filter0_f_0_1)">
<path d="M339.242 12.6316L335.023 4L331.408 12.6316L324 16.2406L331.408 19.8496L335.023 30L339.242 19.8496L347 16.2406L339.242 12.6316Z" fill="url(#paint1_linear_0_1)"/>
</g>
<path d="M293.728 17.1279H22.4434C20.7955 29.6361 16.2268 34.6533 1.18164 39.737V112.903C18.0525 115.552 22.0382 119.572 22.4434 129.859H638.247C646.151 116.965 652.826 111.845 670.534 108.192V37.5389C651.947 35.8929 645.12 31.1671 638.247 17.1279H383.106" stroke="#C1A875"/>
<path d="M75.8772 96.42C74.7572 96.46 73.8772 96.16 73.2372 95.52C72.5972 94.88 72.2772 94.06 72.2772 93.06C72.2772 92.3 72.5172 91.64 72.9972 91.08C73.4372 90.48 74.0972 90.16 74.9772 90.12L76.7772 90C78.5372 89.88 79.8572 89.34 80.7372 88.38C81.6572 87.38 82.1172 85.96 82.1172 84.12V57.12C82.1172 55.84 82.4372 54.88 83.0772 54.24C83.7572 53.56 84.7172 53.22 85.9572 53.22C87.1972 53.22 88.1372 53.56 88.7772 54.24C89.4572 54.88 89.7972 55.84 89.7972 57.12V84.06C89.7972 86.58 89.3372 88.72 88.4172 90.48C87.5372 92.24 86.2172 93.62 84.4572 94.62C82.6972 95.58 80.5172 96.14 77.9172 96.3L75.8772 96.42ZM117.908 96.6C113.828 96.6 110.248 95.7 107.168 93.9C104.128 92.1 101.768 89.58 100.088 86.34C98.4081 83.06 97.5681 79.22 97.5681 74.82C97.5681 71.5 98.0481 68.52 99.0081 65.88C99.9681 63.2 101.328 60.92 103.088 59.04C104.888 57.12 107.028 55.66 109.508 54.66C112.028 53.62 114.828 53.1 117.908 53.1C122.028 53.1 125.608 54 128.648 55.8C131.688 57.56 134.048 60.06 135.728 63.3C137.408 66.54 138.248 70.36 138.248 74.76C138.248 78.08 137.768 81.08 136.808 83.76C135.848 86.44 134.468 88.74 132.668 90.66C130.908 92.58 128.768 94.06 126.248 95.1C123.768 96.1 120.988 96.6 117.908 96.6ZM117.908 90C120.508 90 122.708 89.4 124.508 88.2C126.348 87 127.748 85.26 128.708 82.98C129.708 80.7 130.208 77.98 130.208 74.82C130.208 70.02 129.128 66.3 126.968 63.66C124.848 61.02 121.828 59.7 117.908 59.7C115.348 59.7 113.148 60.3 111.308 61.5C109.468 62.66 108.048 64.38 107.048 66.66C106.088 68.9 105.608 71.62 105.608 74.82C105.608 79.58 106.688 83.3 108.848 85.98C111.008 88.66 114.028 90 117.908 90ZM149.898 96.48C148.658 96.48 147.698 96.14 147.018 95.46C146.378 94.74 146.058 93.76 146.058 92.52V57.18C146.058 55.9 146.378 54.92 147.018 54.24C147.698 53.56 148.658 53.22 149.898 53.22C151.138 53.22 152.078 53.56 152.718 54.24C153.398 54.92 153.738 55.9 153.738 57.18V92.52C153.738 93.76 153.418 94.74 152.778 95.46C152.138 96.14 151.178 96.48 149.898 96.48ZM166.591 96.48C165.431 96.48 164.531 96.16 163.891 95.52C163.291 94.88 162.991 93.96 162.991 92.76V57.06C162.991 55.82 163.291 54.88 163.891 54.24C164.531 53.56 165.351 53.22 166.351 53.22C167.271 53.22 167.951 53.4 168.391 53.76C168.871 54.08 169.431 54.64 170.071 55.44L193.051 85.26H191.491V56.88C191.491 55.72 191.791 54.82 192.391 54.18C193.031 53.54 193.931 53.22 195.091 53.22C196.251 53.22 197.131 53.54 197.731 54.18C198.331 54.82 198.631 55.72 198.631 56.88V92.88C198.631 94 198.351 94.88 197.791 95.52C197.231 96.16 196.471 96.48 195.511 96.48C194.591 96.48 193.851 96.3 193.291 95.94C192.771 95.58 192.191 95 191.551 94.2L168.631 64.38H170.131V92.76C170.131 93.96 169.831 94.88 169.231 95.52C168.631 96.16 167.751 96.48 166.591 96.48ZM238.203 96.48C236.963 96.48 236.003 96.14 235.323 95.46C234.683 94.74 234.363 93.76 234.363 92.52V60.12H222.663C221.623 60.12 220.803 59.84 220.203 59.28C219.643 58.68 219.363 57.88 219.363 56.88C219.363 55.84 219.643 55.06 220.203 54.54C220.803 53.98 221.623 53.7 222.663 53.7H253.743C254.783 53.7 255.583 53.98 256.143 54.54C256.743 55.06 257.043 55.84 257.043 56.88C257.043 57.88 256.743 58.68 256.143 59.28C255.583 59.84 254.783 60.12 253.743 60.12H242.043V92.52C242.043 93.76 241.723 94.74 241.083 95.46C240.443 96.14 239.483 96.48 238.203 96.48ZM265.269 96.48C264.029 96.48 263.069 96.14 262.389 95.46C261.749 94.74 261.429 93.76 261.429 92.52V57.18C261.429 55.9 261.749 54.92 262.389 54.24C263.069 53.56 264.029 53.22 265.269 53.22C266.509 53.22 267.449 53.56 268.089 54.24C268.769 54.92 269.109 55.9 269.109 57.18V71.34H290.889V57.18C290.889 55.9 291.209 54.92 291.849 54.24C292.529 53.56 293.489 53.22 294.729 53.22C295.969 53.22 296.909 53.56 297.549 54.24C298.229 54.92 298.569 55.9 298.569 57.18V92.52C298.569 93.76 298.229 94.74 297.549 95.46C296.909 96.14 295.969 96.48 294.729 96.48C293.489 96.48 292.529 96.14 291.849 95.46C291.209 94.74 290.889 93.76 290.889 92.52V77.76H269.109V92.52C269.109 93.76 268.789 94.74 268.149 95.46C267.509 96.14 266.549 96.48 265.269 96.48ZM311.915 96C310.595 96 309.575 95.66 308.855 94.98C308.175 94.26 307.835 93.24 307.835 91.92V57.78C307.835 56.46 308.175 55.46 308.855 54.78C309.575 54.06 310.595 53.7 311.915 53.7H333.335C334.335 53.7 335.095 53.96 335.615 54.48C336.175 55 336.455 55.74 336.455 56.7C336.455 57.7 336.175 58.48 335.615 59.04C335.095 59.56 334.335 59.82 333.335 59.82H315.215V71.46H332.015C333.055 71.46 333.835 71.72 334.355 72.24C334.875 72.76 335.135 73.52 335.135 74.52C335.135 75.52 334.875 76.28 334.355 76.8C333.835 77.32 333.055 77.58 332.015 77.58H315.215V89.88H333.335C334.335 89.88 335.095 90.14 335.615 90.66C336.175 91.18 336.455 91.94 336.455 92.94C336.455 93.94 336.175 94.7 335.615 95.22C335.095 95.74 334.335 96 333.335 96H311.915ZM380.265 96.6C375.585 96.6 371.625 95.72 368.385 93.96C365.185 92.2 362.745 89.7 361.065 86.46C359.385 83.22 358.545 79.38 358.545 74.94C358.545 71.58 359.025 68.56 359.985 65.88C360.985 63.2 362.405 60.92 364.245 59.04C366.125 57.12 368.405 55.66 371.085 54.66C373.765 53.62 376.805 53.1 380.205 53.1C382.445 53.1 384.685 53.38 386.925 53.94C389.205 54.46 391.345 55.36 393.345 56.64C394.025 57.08 394.465 57.62 394.665 58.26C394.905 58.9 394.945 59.56 394.785 60.24C394.625 60.88 394.325 61.44 393.885 61.92C393.445 62.4 392.885 62.7 392.205 62.82C391.565 62.94 390.845 62.78 390.045 62.34C388.525 61.46 386.985 60.82 385.425 60.42C383.865 60.02 382.125 59.82 380.205 59.82C377.245 59.82 374.745 60.42 372.705 61.62C370.665 62.78 369.125 64.48 368.085 66.72C367.085 68.96 366.585 71.7 366.585 74.94C366.585 79.86 367.765 83.6 370.125 86.16C372.485 88.72 375.985 90 380.625 90C382.225 90 383.845 89.84 385.485 89.52C387.125 89.2 388.725 88.76 390.285 88.2L388.785 91.62V78.84H382.185C381.185 78.84 380.405 78.58 379.845 78.06C379.325 77.54 379.065 76.84 379.065 75.96C379.065 75.04 379.325 74.34 379.845 73.86C380.405 73.38 381.185 73.14 382.185 73.14H392.085C393.085 73.14 393.845 73.42 394.365 73.98C394.925 74.5 395.205 75.26 395.205 76.26V90.84C395.205 91.72 395.025 92.46 394.665 93.06C394.345 93.66 393.805 94.1 393.045 94.38C391.285 95.02 389.265 95.56 386.985 96C384.705 96.4 382.465 96.6 380.265 96.6ZM404.524 96.48C403.564 96.48 402.784 96.26 402.184 95.82C401.624 95.38 401.284 94.8 401.164 94.08C401.044 93.32 401.184 92.48 401.584 91.56L417.424 56.46C417.944 55.3 418.564 54.48 419.284 54C420.044 53.48 420.904 53.22 421.864 53.22C422.784 53.22 423.604 53.48 424.324 54C425.084 54.48 425.724 55.3 426.244 56.46L442.144 91.56C442.584 92.48 442.744 93.32 442.624 94.08C442.504 94.84 442.164 95.44 441.604 95.88C441.044 96.28 440.304 96.48 439.384 96.48C438.264 96.48 437.384 96.22 436.744 95.7C436.144 95.14 435.604 94.3 435.124 93.18L431.224 84.12L434.464 86.22H409.144L412.384 84.12L408.544 93.18C408.024 94.34 407.484 95.18 406.924 95.7C406.364 96.22 405.564 96.48 404.524 96.48ZM421.744 62.04L413.344 82.02L411.784 80.1H431.824L430.324 82.02L421.864 62.04H421.744ZM452.653 96C451.413 96 450.453 95.66 449.773 94.98C449.093 94.26 448.753 93.28 448.753 92.04V57.42C448.753 56.14 449.073 55.18 449.713 54.54C450.393 53.86 451.353 53.52 452.593 53.52C453.833 53.52 454.773 53.86 455.413 54.54C456.093 55.18 456.433 56.14 456.433 57.42V89.46H473.833C474.913 89.46 475.733 89.74 476.293 90.3C476.893 90.86 477.193 91.66 477.193 92.7C477.193 93.74 476.893 94.56 476.293 95.16C475.733 95.72 474.913 96 473.833 96H452.653ZM481.927 96.48C480.967 96.48 480.187 96.26 479.587 95.82C479.027 95.38 478.687 94.8 478.567 94.08C478.447 93.32 478.587 92.48 478.987 91.56L494.827 56.46C495.347 55.3 495.967 54.48 496.687 54C497.447 53.48 498.307 53.22 499.267 53.22C500.187 53.22 501.007 53.48 501.727 54C502.487 54.48 503.127 55.3 503.647 56.46L519.547 91.56C519.987 92.48 520.147 93.32 520.027 94.08C519.907 94.84 519.567 95.44 519.007 95.88C518.447 96.28 517.707 96.48 516.787 96.48C515.667 96.48 514.787 96.22 514.147 95.7C513.547 95.14 513.007 94.3 512.527 93.18L508.627 84.12L511.867 86.22H486.547L489.787 84.12L485.947 93.18C485.427 94.34 484.887 95.18 484.327 95.7C483.767 96.22 482.967 96.48 481.927 96.48ZM499.147 62.04L490.747 82.02L489.187 80.1H509.227L507.727 82.02L499.267 62.04H499.147ZM526.716 96.48C525.716 96.48 524.896 96.22 524.256 95.7C523.616 95.14 523.236 94.46 523.116 93.66C523.036 92.82 523.316 91.98 523.956 91.14L537.696 72.84V76.14L524.616 58.62C523.976 57.74 523.696 56.9 523.776 56.1C523.856 55.26 524.216 54.58 524.856 54.06C525.496 53.5 526.296 53.22 527.256 53.22C528.056 53.22 528.756 53.42 529.356 53.82C529.996 54.18 530.636 54.8 531.276 55.68L542.076 70.56H539.616L550.356 55.68C550.996 54.8 551.616 54.18 552.216 53.82C552.856 53.42 553.596 53.22 554.436 53.22C555.436 53.22 556.256 53.48 556.896 54C557.536 54.52 557.896 55.2 557.976 56.04C558.056 56.84 557.756 57.7 557.076 58.62L543.996 76.14V72.84L557.676 91.14C558.316 91.98 558.596 92.82 558.516 93.66C558.436 94.46 558.076 95.14 557.436 95.7C556.796 96.22 555.956 96.48 554.916 96.48C554.156 96.48 553.456 96.28 552.816 95.88C552.216 95.48 551.576 94.84 550.896 93.96L539.496 78.36H542.136L530.796 93.96C530.156 94.84 529.516 95.48 528.876 95.88C528.236 96.28 527.516 96.48 526.716 96.48ZM579.333 96.48C578.093 96.48 577.133 96.14 576.453 95.46C575.813 94.74 575.493 93.74 575.493 92.46V74.22L577.113 78.84L562.653 58.5C562.133 57.78 561.893 57.02 561.933 56.22C562.013 55.38 562.353 54.68 562.953 54.12C563.553 53.52 564.393 53.22 565.473 53.22C566.273 53.22 566.993 53.42 567.633 53.82C568.313 54.22 568.953 54.84 569.553 55.68L580.293 70.92H578.613L589.413 55.68C590.053 54.8 590.673 54.18 591.273 53.82C591.873 53.42 592.613 53.22 593.493 53.22C594.533 53.22 595.333 53.5 595.893 54.06C596.493 54.58 596.793 55.24 596.793 56.04C596.833 56.84 596.553 57.68 595.953 58.56L581.613 78.84L583.173 74.22V92.46C583.173 95.14 581.893 96.48 579.333 96.48Z" fill="url(#paint2_linear_0_1)"/>
<defs>
<filter id="filter0_f_0_1" x="320" y="0" width="31" height="34" filterUnits="userSpaceOnUse" color-interpolation-filters="sRGB">
<feFlood flood-opacity="0" result="BackgroundImageFix"/>
<feBlend mode="normal" in="SourceGraphic" in2="BackgroundImageFix" result="shape"/>
<feGaussianBlur stdDeviation="2" result="effect1_foregroundBlur_0_1"/>
</filter>
<linearGradient id="paint0_linear_0_1" x1="471.458" y1="24" x2="476.645" y2="201.587" gradientUnits="userSpaceOnUse">
<stop stop-color="#15121A"/>
<stop offset="0.794474" stop-color="#675980"/>
</linearGradient>
<linearGradient id="paint1_linear_0_1" x1="335.5" y1="4" x2="335.5" y2="30" gradientUnits="userSpaceOnUse">
<stop stop-color="#FFDA7C"/>
<stop offset="0.465017" stop-color="#FFDA7C"/>
<stop offset="1" stop-color="#D09742"/>
</linearGradient>
<linearGradient id="paint2_linear_0_1" x1="375.033" y1="51.4804" x2="375.033" y2="111.373" gradientUnits="userSpaceOnUse">
<stop stop-color="#D09742"/>
<stop offset="0.46103" stop-color="#FFDA7C"/>
<stop offset="1" stop-color="#6A4D22"/>
</linearGradient>
</defs>
</svg>
