<svg width="351" height="78" viewBox="0 0 351 78" fill="none" xmlns="http://www.w3.org/2000/svg">
<path d="M1 21.5131C21.9634 19.3293 29.6653 15.5036 31.3969 1H318.479C318.047 16.7492 326.172 20.6865 350.002 22.3021V55.4386C326.755 56.4126 320.046 61.11 318.479 76.7407H31.3969C31.1569 62.5528 24.9766 57.818 1 56.2276V22.3021" stroke="url(#paint0_linear_110_268)"/>
<rect x="10.5073" y="9.38965" width="329.989" height="58.9624" stroke="url(#paint1_linear_110_268)"/>
<!-- <path d="M72.5551 49.231C72.1151 49.231 71.7741 49.11 71.5321 48.868C71.3121 48.604 71.2021 48.252 71.2021 47.812V27.121C71.2021 26.659 71.3231 26.318 71.5651 26.098C71.8071 25.856 72.1481 25.735 72.5881 25.735H80.4091C82.8951 25.735 84.8091 26.351 86.1511 27.583C87.4931 28.793 88.1641 30.509 88.1641 32.731C88.1641 34.931 87.4931 36.647 86.1511 37.879C84.8091 39.111 82.8951 39.727 80.4091 39.727H73.9081V47.812C73.9081 48.252 73.7981 48.604 73.5781 48.868C73.3581 49.11 73.0171 49.231 72.5551 49.231ZM73.9081 37.45H80.0791C81.8611 37.45 83.2031 37.054 84.1051 36.262C85.0291 35.448 85.4911 34.271 85.4911 32.731C85.4911 31.169 85.0291 29.992 84.1051 29.2C83.2031 28.386 81.8611 27.979 80.0791 27.979H73.9081V37.45ZM89.2373 49.231C88.8853 49.231 88.5993 49.154 88.3793 49C88.1813 48.824 88.0603 48.604 88.0163 48.34C87.9943 48.054 88.0603 47.735 88.2143 47.383L97.2893 26.725C97.4873 26.285 97.7183 25.977 97.9823 25.801C98.2683 25.603 98.5763 25.504 98.9063 25.504C99.2363 25.504 99.5333 25.603 99.7973 25.801C100.083 25.977 100.314 26.285 100.49 26.725L109.598 47.383C109.774 47.735 109.84 48.054 109.796 48.34C109.774 48.626 109.664 48.846 109.466 49C109.268 49.154 108.993 49.231 108.641 49.231C108.245 49.231 107.926 49.132 107.684 48.934C107.442 48.714 107.244 48.406 107.09 48.01L104.648 42.367L105.968 43.06H91.7783L93.1313 42.367L90.7223 48.01C90.5243 48.428 90.3153 48.736 90.0953 48.934C89.8753 49.132 89.5893 49.231 89.2373 49.231ZM98.8733 28.903L93.5603 41.41L92.7683 40.783H104.978L104.252 41.41L98.9393 28.903H98.8733ZM121.104 49.297C120.07 49.297 119.058 49.209 118.068 49.033C117.078 48.857 116.154 48.604 115.296 48.274C114.46 47.944 113.701 47.526 113.019 47.02C112.755 46.822 112.568 46.602 112.458 46.36C112.37 46.096 112.348 45.843 112.392 45.601C112.458 45.337 112.568 45.117 112.722 44.941C112.898 44.765 113.107 44.666 113.349 44.644C113.591 44.622 113.855 44.699 114.141 44.875C115.131 45.579 116.187 46.096 117.309 46.426C118.431 46.734 119.696 46.888 121.104 46.888C123.084 46.888 124.547 46.525 125.493 45.799C126.461 45.051 126.945 44.072 126.945 42.862C126.945 41.872 126.593 41.102 125.889 40.552C125.207 39.98 124.052 39.529 122.424 39.199L118.992 38.506C116.924 38.066 115.373 37.351 114.339 36.361C113.327 35.349 112.821 34.007 112.821 32.335C112.821 31.301 113.03 30.366 113.448 29.53C113.866 28.672 114.449 27.946 115.197 27.352C115.945 26.736 116.836 26.263 117.87 25.933C118.904 25.603 120.048 25.438 121.302 25.438C122.688 25.438 123.975 25.636 125.163 26.032C126.373 26.406 127.462 26.978 128.43 27.748C128.672 27.946 128.837 28.177 128.925 28.441C129.013 28.683 129.024 28.925 128.958 29.167C128.892 29.387 128.771 29.574 128.595 29.728C128.441 29.882 128.232 29.97 127.968 29.992C127.726 30.014 127.451 29.926 127.143 29.728C126.263 29.068 125.35 28.595 124.404 28.309C123.458 28.001 122.413 27.847 121.269 27.847C120.103 27.847 119.091 28.023 118.233 28.375C117.397 28.727 116.737 29.244 116.253 29.926C115.791 30.586 115.56 31.356 115.56 32.236C115.56 33.292 115.879 34.128 116.517 34.744C117.177 35.36 118.244 35.811 119.718 36.097L123.15 36.823C125.372 37.285 127.011 37.989 128.067 38.935C129.145 39.859 129.684 41.124 129.684 42.73C129.684 43.698 129.486 44.589 129.09 45.403C128.694 46.217 128.122 46.921 127.374 47.515C126.626 48.087 125.724 48.527 124.668 48.835C123.612 49.143 122.424 49.297 121.104 49.297ZM140.461 49.231C140.043 49.231 139.713 49.11 139.471 48.868C139.229 48.604 139.108 48.252 139.108 47.812V28.078H131.683C131.287 28.078 130.979 27.968 130.759 27.748C130.539 27.528 130.429 27.242 130.429 26.89C130.429 26.516 130.539 26.23 130.759 26.032C130.979 25.834 131.287 25.735 131.683 25.735H149.272C149.668 25.735 149.976 25.834 150.196 26.032C150.416 26.23 150.526 26.516 150.526 26.89C150.526 27.264 150.416 27.561 150.196 27.781C149.976 27.979 149.668 28.078 149.272 28.078H141.847V47.812C141.847 48.252 141.726 48.604 141.484 48.868C141.264 49.11 140.923 49.231 140.461 49.231ZM163.244 49C162.76 49 162.386 48.879 162.122 48.637C161.88 48.373 161.759 47.999 161.759 47.515V27.22C161.759 26.736 161.88 26.373 162.122 26.131C162.386 25.867 162.76 25.735 163.244 25.735H175.52C175.894 25.735 176.18 25.834 176.378 26.032C176.576 26.23 176.675 26.505 176.675 26.857C176.675 27.231 176.576 27.517 176.378 27.715C176.18 27.913 175.894 28.012 175.52 28.012H164.399V36.064H174.827C175.201 36.064 175.487 36.163 175.685 36.361C175.883 36.537 175.982 36.812 175.982 37.186C175.982 37.56 175.883 37.846 175.685 38.044C175.487 38.242 175.201 38.341 174.827 38.341H164.399V46.723H175.52C175.894 46.723 176.18 46.822 176.378 47.02C176.576 47.218 176.675 47.493 176.675 47.845C176.675 48.219 176.576 48.505 176.378 48.703C176.18 48.901 175.894 49 175.52 49H163.244ZM189.286 49.231C188.868 49.231 188.527 49.132 188.263 48.934C187.999 48.736 187.79 48.439 187.636 48.043L178.561 27.286C178.407 26.912 178.363 26.604 178.429 26.362C178.495 26.098 178.638 25.889 178.858 25.735C179.1 25.581 179.375 25.504 179.683 25.504C180.101 25.504 180.409 25.603 180.607 25.801C180.827 25.977 181.003 26.241 181.135 26.593L189.847 46.822H188.791L197.47 26.56C197.624 26.23 197.811 25.977 198.031 25.801C198.251 25.603 198.559 25.504 198.955 25.504C199.263 25.504 199.516 25.581 199.714 25.735C199.934 25.889 200.066 26.098 200.11 26.362C200.176 26.626 200.132 26.934 199.978 27.286L190.903 48.043C190.749 48.439 190.54 48.736 190.276 48.934C190.034 49.132 189.704 49.231 189.286 49.231ZM205.009 49C204.525 49 204.151 48.879 203.887 48.637C203.645 48.373 203.524 47.999 203.524 47.515V27.22C203.524 26.736 203.645 26.373 203.887 26.131C204.151 25.867 204.525 25.735 205.009 25.735H217.285C217.659 25.735 217.945 25.834 218.143 26.032C218.341 26.23 218.44 26.505 218.44 26.857C218.44 27.231 218.341 27.517 218.143 27.715C217.945 27.913 217.659 28.012 217.285 28.012H206.164V36.064H216.592C216.966 36.064 217.252 36.163 217.45 36.361C217.648 36.537 217.747 36.812 217.747 37.186C217.747 37.56 217.648 37.846 217.45 38.044C217.252 38.242 216.966 38.341 216.592 38.341H206.164V46.723H217.285C217.659 46.723 217.945 46.822 218.143 47.02C218.341 47.218 218.44 47.493 218.44 47.845C218.44 48.219 218.341 48.505 218.143 48.703C217.945 48.901 217.659 49 217.285 49H205.009ZM224.051 49.231C223.633 49.231 223.314 49.121 223.094 48.901C222.874 48.659 222.764 48.318 222.764 47.878V26.89C222.764 26.45 222.874 26.109 223.094 25.867C223.314 25.625 223.6 25.504 223.952 25.504C224.304 25.504 224.557 25.57 224.711 25.702C224.887 25.812 225.085 26.021 225.305 26.329L239.693 45.502H238.901V26.824C238.901 26.406 239.011 26.087 239.231 25.867C239.451 25.625 239.77 25.504 240.188 25.504C240.584 25.504 240.881 25.625 241.079 25.867C241.299 26.087 241.409 26.406 241.409 26.824V47.911C241.409 48.329 241.31 48.659 241.112 48.901C240.936 49.121 240.672 49.231 240.32 49.231C239.99 49.231 239.726 49.165 239.528 49.033C239.33 48.901 239.121 48.692 238.901 48.406L224.546 29.233H225.305V47.878C225.305 48.318 225.195 48.659 224.975 48.901C224.755 49.121 224.447 49.231 224.051 49.231ZM254.253 49.231C253.835 49.231 253.505 49.11 253.263 48.868C253.021 48.604 252.9 48.252 252.9 47.812V28.078H245.475C245.079 28.078 244.771 27.968 244.551 27.748C244.331 27.528 244.221 27.242 244.221 26.89C244.221 26.516 244.331 26.23 244.551 26.032C244.771 25.834 245.079 25.735 245.475 25.735H263.064C263.46 25.735 263.768 25.834 263.988 26.032C264.208 26.23 264.318 26.516 264.318 26.89C264.318 27.264 264.208 27.561 263.988 27.781C263.768 27.979 263.46 28.078 263.064 28.078H255.639V47.812C255.639 48.252 255.518 48.604 255.276 48.868C255.056 49.11 254.715 49.231 254.253 49.231ZM273.761 49.297C272.727 49.297 271.715 49.209 270.725 49.033C269.735 48.857 268.811 48.604 267.953 48.274C267.117 47.944 266.358 47.526 265.676 47.02C265.412 46.822 265.225 46.602 265.115 46.36C265.027 46.096 265.005 45.843 265.049 45.601C265.115 45.337 265.225 45.117 265.379 44.941C265.555 44.765 265.764 44.666 266.006 44.644C266.248 44.622 266.512 44.699 266.798 44.875C267.788 45.579 268.844 46.096 269.966 46.426C271.088 46.734 272.353 46.888 273.761 46.888C275.741 46.888 277.204 46.525 278.15 45.799C279.118 45.051 279.602 44.072 279.602 42.862C279.602 41.872 279.25 41.102 278.546 40.552C277.864 39.98 276.709 39.529 275.081 39.199L271.649 38.506C269.581 38.066 268.03 37.351 266.996 36.361C265.984 35.349 265.478 34.007 265.478 32.335C265.478 31.301 265.687 30.366 266.105 29.53C266.523 28.672 267.106 27.946 267.854 27.352C268.602 26.736 269.493 26.263 270.527 25.933C271.561 25.603 272.705 25.438 273.959 25.438C275.345 25.438 276.632 25.636 277.82 26.032C279.03 26.406 280.119 26.978 281.087 27.748C281.329 27.946 281.494 28.177 281.582 28.441C281.67 28.683 281.681 28.925 281.615 29.167C281.549 29.387 281.428 29.574 281.252 29.728C281.098 29.882 280.889 29.97 280.625 29.992C280.383 30.014 280.108 29.926 279.8 29.728C278.92 29.068 278.007 28.595 277.061 28.309C276.115 28.001 275.07 27.847 273.926 27.847C272.76 27.847 271.748 28.023 270.89 28.375C270.054 28.727 269.394 29.244 268.91 29.926C268.448 30.586 268.217 31.356 268.217 32.236C268.217 33.292 268.536 34.128 269.174 34.744C269.834 35.36 270.901 35.811 272.375 36.097L275.807 36.823C278.029 37.285 279.668 37.989 280.724 38.935C281.802 39.859 282.341 41.124 282.341 42.73C282.341 43.698 282.143 44.589 281.747 45.403C281.351 46.217 280.779 46.921 280.031 47.515C279.283 48.087 278.381 48.527 277.325 48.835C276.269 49.143 275.081 49.297 273.761 49.297Z" fill="white"/> -->
<defs>
<linearGradient id="paint0_linear_110_268" x1="1" y1="38.8704" x2="350.002" y2="38.8704" gradientUnits="userSpaceOnUse">
<stop stop-color="#D09742"/>
<stop offset="0.444974" stop-color="#D0A660" stop-opacity="0.76999"/>
<stop offset="0.9998" stop-color="#905803"/>
</linearGradient>
<linearGradient id="paint1_linear_110_268" x1="10.0073" y1="38.8708" x2="340.996" y2="38.8708" gradientUnits="userSpaceOnUse">
<stop stop-color="#D09742"/>
<stop offset="0.444974" stop-color="#D0A660" stop-opacity="0.76999"/>
<stop offset="0.9998" stop-color="#905803"/>
</linearGradient>
</defs>
</svg>
