<svg width="394" height="80" viewBox="0 0 394 80" fill="none" xmlns="http://www.w3.org/2000/svg">
<path d="M35.6419 1C33.7107 15.4005 24.6759 20.7402 1.5 22.9529V56.2276C28.4306 57.818 35.3723 62.5528 35.6419 76.7407H358.094C359.854 61.11 367.389 56.4126 393.5 55.4386V22.3021C366.734 20.6865 357.608 16.7492 358.094 1H35.6419Z" fill="#FFDA7C"/>
<path d="M1 23C24.5462 20.8162 33.6969 15.5036 35.6419 1H358.094C357.608 16.7492 366.734 20.6865 393.5 22.3021V55.4386C367.389 56.4126 359.854 61.11 358.094 76.7407H35.6419C35.3723 62.5528 28.4306 57.818 1.5 56.2276V22.3021" stroke="black"/>
<rect x="12.1177" y="9.38965" width="370.768" height="58.9624" fill="#FFDA7C" stroke="black"/>
<!-- <path d="M54.7284 52.297C53.1884 52.297 51.8354 52.099 50.6694 51.703C49.5254 51.285 48.5574 50.68 47.7654 49.888C46.9734 49.074 46.3794 48.073 45.9834 46.885C45.5874 45.697 45.3894 44.333 45.3894 42.793V29.89C45.3894 29.428 45.4994 29.087 45.7194 28.867C45.9614 28.625 46.3024 28.504 46.7424 28.504C47.1824 28.504 47.5124 28.625 47.7324 28.867C47.9744 29.087 48.0954 29.428 48.0954 29.89V42.661C48.0954 45.081 48.6564 46.896 49.7784 48.106C50.9004 49.294 52.5504 49.888 54.7284 49.888C56.9064 49.888 58.5454 49.294 59.6454 48.106C60.7454 46.896 61.2954 45.081 61.2954 42.661V29.89C61.2954 29.428 61.4164 29.087 61.6584 28.867C61.9004 28.625 62.2414 28.504 62.6814 28.504C63.0994 28.504 63.4184 28.625 63.6384 28.867C63.8804 29.087 64.0014 29.428 64.0014 29.89V42.793C64.0014 44.839 63.6494 46.577 62.9454 48.007C62.2634 49.437 61.2294 50.515 59.8434 51.241C58.4574 51.945 56.7524 52.297 54.7284 52.297ZM70.9162 52.231C70.4762 52.231 70.1352 52.11 69.8932 51.868C69.6732 51.604 69.5632 51.252 69.5632 50.812V30.121C69.5632 29.659 69.6842 29.318 69.9262 29.098C70.1682 28.856 70.5092 28.735 70.9492 28.735H78.7702C81.2562 28.735 83.1702 29.351 84.5122 30.583C85.8542 31.793 86.5252 33.509 86.5252 35.731C86.5252 37.931 85.8542 39.647 84.5122 40.879C83.1702 42.111 81.2562 42.727 78.7702 42.727H72.2692V50.812C72.2692 51.252 72.1592 51.604 71.9392 51.868C71.7192 52.11 71.3782 52.231 70.9162 52.231ZM72.2692 40.45H78.4402C80.2222 40.45 81.5642 40.054 82.4662 39.262C83.3902 38.448 83.8522 37.271 83.8522 35.731C83.8522 34.169 83.3902 32.992 82.4662 32.2C81.5642 31.386 80.2222 30.979 78.4402 30.979H72.2692V40.45ZM100.253 52.297C97.9652 52.297 96.0072 51.813 94.3792 50.845C92.7512 49.877 91.4972 48.502 90.6172 46.72C89.7592 44.938 89.3302 42.815 89.3302 40.351C89.3302 38.503 89.5722 36.853 90.0562 35.401C90.5622 33.927 91.2772 32.684 92.2012 31.672C93.1472 30.638 94.3022 29.846 95.6662 29.296C97.0302 28.724 98.5592 28.438 100.253 28.438C101.617 28.438 102.915 28.636 104.147 29.032C105.379 29.406 106.446 29.967 107.348 30.715C107.634 30.935 107.821 31.188 107.909 31.474C108.019 31.738 108.03 32.002 107.942 32.266C107.876 32.508 107.744 32.717 107.546 32.893C107.37 33.047 107.15 33.124 106.886 33.124C106.622 33.124 106.325 33.014 105.995 32.794C105.203 32.156 104.334 31.683 103.388 31.375C102.442 31.067 101.419 30.913 100.319 30.913C98.5812 30.913 97.1072 31.287 95.8972 32.035C94.6872 32.761 93.7742 33.828 93.1582 35.236C92.5422 36.644 92.2342 38.349 92.2342 40.351C92.2342 42.353 92.5422 44.069 93.1582 45.499C93.7742 46.907 94.6872 47.985 95.8972 48.733C97.1072 49.459 98.5812 49.822 100.319 49.822C101.397 49.822 102.42 49.668 103.388 49.36C104.356 49.03 105.247 48.546 106.061 47.908C106.391 47.688 106.688 47.589 106.952 47.611C107.216 47.611 107.436 47.688 107.612 47.842C107.788 47.996 107.909 48.194 107.975 48.436C108.063 48.678 108.063 48.931 107.975 49.195C107.909 49.459 107.744 49.69 107.48 49.888C106.556 50.68 105.467 51.285 104.213 51.703C102.981 52.099 101.661 52.297 100.253 52.297ZM121.483 52.297C119.327 52.297 117.446 51.813 115.84 50.845C114.256 49.855 113.024 48.469 112.144 46.687C111.286 44.905 110.857 42.793 110.857 40.351C110.857 38.503 111.099 36.853 111.583 35.401C112.089 33.927 112.804 32.684 113.728 31.672C114.652 30.638 115.763 29.846 117.061 29.296C118.381 28.724 119.855 28.438 121.483 28.438C123.683 28.438 125.575 28.922 127.159 29.89C128.765 30.858 129.997 32.233 130.855 34.015C131.735 35.775 132.175 37.876 132.175 40.318C132.175 42.166 131.922 43.827 131.416 45.301C130.91 46.775 130.195 48.029 129.271 49.063C128.347 50.097 127.225 50.9 125.905 51.472C124.607 52.022 123.133 52.297 121.483 52.297ZM121.483 49.888C123.155 49.888 124.563 49.514 125.707 48.766C126.873 48.018 127.764 46.929 128.38 45.499C128.996 44.069 129.304 42.353 129.304 40.351C129.304 37.337 128.622 35.005 127.258 33.355C125.916 31.683 123.991 30.847 121.483 30.847C119.855 30.847 118.458 31.221 117.292 31.969C116.148 32.717 115.268 33.806 114.652 35.236C114.036 36.644 113.728 38.349 113.728 40.351C113.728 43.343 114.41 45.686 115.774 47.38C117.138 49.052 119.041 49.888 121.483 49.888ZM138.333 52.231C137.937 52.231 137.629 52.121 137.409 51.901C137.189 51.659 137.079 51.329 137.079 50.911V29.824C137.079 29.384 137.189 29.054 137.409 28.834C137.629 28.614 137.937 28.504 138.333 28.504C138.685 28.504 138.96 28.581 139.158 28.735C139.378 28.867 139.576 29.098 139.752 29.428L148.794 46.456H147.804L156.813 29.428C156.989 29.098 157.176 28.867 157.374 28.735C157.572 28.581 157.858 28.504 158.232 28.504C158.606 28.504 158.903 28.614 159.123 28.834C159.343 29.054 159.453 29.384 159.453 29.824V50.911C159.453 51.329 159.343 51.659 159.123 51.901C158.925 52.121 158.617 52.231 158.199 52.231C157.803 52.231 157.495 52.121 157.275 51.901C157.055 51.659 156.945 51.329 156.945 50.911V32.365H157.737L149.487 47.842C149.333 48.128 149.168 48.337 148.992 48.469C148.838 48.579 148.607 48.634 148.299 48.634C147.991 48.634 147.749 48.568 147.573 48.436C147.397 48.304 147.243 48.106 147.111 47.842L138.762 32.332H139.554V50.911C139.554 51.329 139.444 51.659 139.224 51.901C139.026 52.121 138.729 52.231 138.333 52.231ZM166.597 52.231C166.157 52.231 165.816 52.11 165.574 51.868C165.354 51.604 165.244 51.252 165.244 50.812V29.923C165.244 29.461 165.354 29.109 165.574 28.867C165.816 28.625 166.157 28.504 166.597 28.504C167.037 28.504 167.367 28.625 167.587 28.867C167.829 29.109 167.95 29.461 167.95 29.923V50.812C167.95 51.252 167.84 51.604 167.62 51.868C167.4 52.11 167.059 52.231 166.597 52.231ZM175.006 52.231C174.588 52.231 174.269 52.121 174.049 51.901C173.829 51.659 173.719 51.318 173.719 50.878V29.89C173.719 29.45 173.829 29.109 174.049 28.867C174.269 28.625 174.555 28.504 174.907 28.504C175.259 28.504 175.512 28.57 175.666 28.702C175.842 28.812 176.04 29.021 176.26 29.329L190.648 48.502H189.856V29.824C189.856 29.406 189.966 29.087 190.186 28.867C190.406 28.625 190.725 28.504 191.143 28.504C191.539 28.504 191.836 28.625 192.034 28.867C192.254 29.087 192.364 29.406 192.364 29.824V50.911C192.364 51.329 192.265 51.659 192.067 51.901C191.891 52.121 191.627 52.231 191.275 52.231C190.945 52.231 190.681 52.165 190.483 52.033C190.285 51.901 190.076 51.692 189.856 51.406L175.501 32.233H176.26V50.878C176.26 51.318 176.15 51.659 175.93 51.901C175.71 52.121 175.402 52.231 175.006 52.231ZM208.773 52.297C206.287 52.297 204.186 51.824 202.47 50.878C200.776 49.932 199.489 48.568 198.609 46.786C197.729 45.004 197.289 42.87 197.289 40.384C197.289 38.536 197.531 36.875 198.015 35.401C198.521 33.927 199.247 32.684 200.193 31.672C201.161 30.638 202.327 29.846 203.691 29.296C205.077 28.724 206.639 28.438 208.377 28.438C209.763 28.438 211.105 28.636 212.403 29.032C213.701 29.406 214.856 30.011 215.868 30.847C216.132 31.045 216.297 31.265 216.363 31.507C216.429 31.749 216.418 31.991 216.33 32.233C216.264 32.475 216.143 32.684 215.967 32.86C215.813 33.014 215.604 33.102 215.34 33.124C215.098 33.146 214.845 33.069 214.581 32.893C213.679 32.189 212.722 31.683 211.71 31.375C210.698 31.045 209.576 30.88 208.344 30.88C206.584 30.88 205.088 31.254 203.856 32.002C202.646 32.75 201.722 33.828 201.084 35.236C200.468 36.644 200.16 38.36 200.16 40.384C200.16 43.464 200.875 45.818 202.305 47.446C203.757 49.074 205.935 49.888 208.839 49.888C209.895 49.888 210.929 49.789 211.941 49.591C212.953 49.371 213.91 49.074 214.812 48.7L214.218 50.251V42.034H209.499C209.103 42.034 208.806 41.935 208.608 41.737C208.41 41.539 208.311 41.275 208.311 40.945C208.311 40.593 208.41 40.329 208.608 40.153C208.806 39.977 209.103 39.889 209.499 39.889H215.406C215.78 39.889 216.066 39.988 216.264 40.186C216.462 40.384 216.561 40.67 216.561 41.044V49.657C216.561 49.987 216.506 50.262 216.396 50.482C216.286 50.702 216.099 50.867 215.835 50.977C214.911 51.351 213.8 51.67 212.502 51.934C211.226 52.176 209.983 52.297 208.773 52.297ZM232.084 52C231.6 52 231.226 51.879 230.962 51.637C230.72 51.373 230.599 50.999 230.599 50.515V30.22C230.599 29.736 230.72 29.373 230.962 29.131C231.226 28.867 231.6 28.735 232.084 28.735H244.36C244.734 28.735 245.02 28.834 245.218 29.032C245.416 29.23 245.515 29.505 245.515 29.857C245.515 30.231 245.416 30.517 245.218 30.715C245.02 30.913 244.734 31.012 244.36 31.012H233.239V39.064H243.667C244.041 39.064 244.327 39.163 244.525 39.361C244.723 39.537 244.822 39.812 244.822 40.186C244.822 40.56 244.723 40.846 244.525 41.044C244.327 41.242 244.041 41.341 243.667 41.341H233.239V49.723H244.36C244.734 49.723 245.02 49.822 245.218 50.02C245.416 50.218 245.515 50.493 245.515 50.845C245.515 51.219 245.416 51.505 245.218 51.703C245.02 51.901 244.734 52 244.36 52H232.084ZM258.127 52.231C257.709 52.231 257.368 52.132 257.104 51.934C256.84 51.736 256.631 51.439 256.477 51.043L247.402 30.286C247.248 29.912 247.204 29.604 247.27 29.362C247.336 29.098 247.479 28.889 247.699 28.735C247.941 28.581 248.216 28.504 248.524 28.504C248.942 28.504 249.25 28.603 249.448 28.801C249.668 28.977 249.844 29.241 249.976 29.593L258.688 49.822H257.632L266.311 29.56C266.465 29.23 266.652 28.977 266.872 28.801C267.092 28.603 267.4 28.504 267.796 28.504C268.104 28.504 268.357 28.581 268.555 28.735C268.775 28.889 268.907 29.098 268.951 29.362C269.017 29.626 268.973 29.934 268.819 30.286L259.744 51.043C259.59 51.439 259.381 51.736 259.117 51.934C258.875 52.132 258.545 52.231 258.127 52.231ZM273.85 52C273.366 52 272.992 51.879 272.728 51.637C272.486 51.373 272.365 50.999 272.365 50.515V30.22C272.365 29.736 272.486 29.373 272.728 29.131C272.992 28.867 273.366 28.735 273.85 28.735H286.126C286.5 28.735 286.786 28.834 286.984 29.032C287.182 29.23 287.281 29.505 287.281 29.857C287.281 30.231 287.182 30.517 286.984 30.715C286.786 30.913 286.5 31.012 286.126 31.012H275.005V39.064H285.433C285.807 39.064 286.093 39.163 286.291 39.361C286.489 39.537 286.588 39.812 286.588 40.186C286.588 40.56 286.489 40.846 286.291 41.044C286.093 41.242 285.807 41.341 285.433 41.341H275.005V49.723H286.126C286.5 49.723 286.786 49.822 286.984 50.02C287.182 50.218 287.281 50.493 287.281 50.845C287.281 51.219 287.182 51.505 286.984 51.703C286.786 51.901 286.5 52 286.126 52H273.85ZM292.891 52.231C292.473 52.231 292.154 52.121 291.934 51.901C291.714 51.659 291.604 51.318 291.604 50.878V29.89C291.604 29.45 291.714 29.109 291.934 28.867C292.154 28.625 292.44 28.504 292.792 28.504C293.144 28.504 293.397 28.57 293.551 28.702C293.727 28.812 293.925 29.021 294.145 29.329L308.533 48.502H307.741V29.824C307.741 29.406 307.851 29.087 308.071 28.867C308.291 28.625 308.61 28.504 309.028 28.504C309.424 28.504 309.721 28.625 309.919 28.867C310.139 29.087 310.249 29.406 310.249 29.824V50.911C310.249 51.329 310.15 51.659 309.952 51.901C309.776 52.121 309.512 52.231 309.16 52.231C308.83 52.231 308.566 52.165 308.368 52.033C308.17 51.901 307.961 51.692 307.741 51.406L293.386 32.233H294.145V50.878C294.145 51.318 294.035 51.659 293.815 51.901C293.595 52.121 293.287 52.231 292.891 52.231ZM323.094 52.231C322.676 52.231 322.346 52.11 322.104 51.868C321.862 51.604 321.741 51.252 321.741 50.812V31.078H314.316C313.92 31.078 313.612 30.968 313.392 30.748C313.172 30.528 313.062 30.242 313.062 29.89C313.062 29.516 313.172 29.23 313.392 29.032C313.612 28.834 313.92 28.735 314.316 28.735H331.905C332.301 28.735 332.609 28.834 332.829 29.032C333.049 29.23 333.159 29.516 333.159 29.89C333.159 30.264 333.049 30.561 332.829 30.781C332.609 30.979 332.301 31.078 331.905 31.078H324.48V50.812C324.48 51.252 324.359 51.604 324.117 51.868C323.897 52.11 323.556 52.231 323.094 52.231ZM342.602 52.297C341.568 52.297 340.556 52.209 339.566 52.033C338.576 51.857 337.652 51.604 336.794 51.274C335.958 50.944 335.199 50.526 334.517 50.02C334.253 49.822 334.066 49.602 333.956 49.36C333.868 49.096 333.846 48.843 333.89 48.601C333.956 48.337 334.066 48.117 334.22 47.941C334.396 47.765 334.605 47.666 334.847 47.644C335.089 47.622 335.353 47.699 335.639 47.875C336.629 48.579 337.685 49.096 338.807 49.426C339.929 49.734 341.194 49.888 342.602 49.888C344.582 49.888 346.045 49.525 346.991 48.799C347.959 48.051 348.443 47.072 348.443 45.862C348.443 44.872 348.091 44.102 347.387 43.552C346.705 42.98 345.55 42.529 343.922 42.199L340.49 41.506C338.422 41.066 336.871 40.351 335.837 39.361C334.825 38.349 334.319 37.007 334.319 35.335C334.319 34.301 334.528 33.366 334.946 32.53C335.364 31.672 335.947 30.946 336.695 30.352C337.443 29.736 338.334 29.263 339.368 28.933C340.402 28.603 341.546 28.438 342.8 28.438C344.186 28.438 345.473 28.636 346.661 29.032C347.871 29.406 348.96 29.978 349.928 30.748C350.17 30.946 350.335 31.177 350.423 31.441C350.511 31.683 350.522 31.925 350.456 32.167C350.39 32.387 350.269 32.574 350.093 32.728C349.939 32.882 349.73 32.97 349.466 32.992C349.224 33.014 348.949 32.926 348.641 32.728C347.761 32.068 346.848 31.595 345.902 31.309C344.956 31.001 343.911 30.847 342.767 30.847C341.601 30.847 340.589 31.023 339.731 31.375C338.895 31.727 338.235 32.244 337.751 32.926C337.289 33.586 337.058 34.356 337.058 35.236C337.058 36.292 337.377 37.128 338.015 37.744C338.675 38.36 339.742 38.811 341.216 39.097L344.648 39.823C346.87 40.285 348.509 40.989 349.565 41.935C350.643 42.859 351.182 44.124 351.182 45.73C351.182 46.698 350.984 47.589 350.588 48.403C350.192 49.217 349.62 49.921 348.872 50.515C348.124 51.087 347.222 51.527 346.166 51.835C345.11 52.143 343.922 52.297 342.602 52.297Z" fill="white"/> -->
</svg>
