<svg width="536" height="529" viewBox="0 0 536 529" fill="none" xmlns="http://www.w3.org/2000/svg">
<g filter="url(#filter0_d_16_132)">
<path fill-rule="evenodd" clip-rule="evenodd" d="M192.357 377.521C307.646 383.511 405.637 301.163 411.226 193.592C415.208 116.958 371.219 48.1957 303.903 12.8174C414.324 34.2956 494.931 132.587 489.038 246.015C482.573 370.438 374.478 465.958 247.599 459.366C150.566 454.324 70.6491 391.02 41.3121 305.863C77.4602 346.947 131.2 374.344 192.357 377.521Z" fill="url(#paint0_linear_16_132)"/>
</g>
<rect y="415.128" width="534.454" height="113.673" rx="10" fill="url(#paint1_linear_16_132)"/>
<g filter="url(#filter1_f_16_132)">
<circle cx="466.312" cy="141.621" r="24.8072" fill="#13111F"/>
<circle cx="466.312" cy="141.621" r="24.3072" stroke="#C1A875"/>
</g>
<g filter="url(#filter2_f_16_132)">
<path d="M271.832 410.696L266.994 401.939L262.848 410.696L254.352 414.357L262.848 418.019L266.994 428.316L271.832 418.019L280.729 414.357L271.832 410.696Z" fill="url(#paint2_linear_16_132)"/>
</g>
<path d="M234.255 415.128H17.899C16.5847 427.636 12.941 432.653 0.942139 437.737V510.903C14.3971 513.552 17.5758 517.572 17.899 527.859H509.018C515.322 514.965 520.645 509.845 534.768 506.192V435.539C519.944 433.893 514.5 429.167 509.018 415.128H305.537" stroke="#C1A875"/>
<defs>
<filter id="filter0_d_16_132" x="37.312" y="12.8174" width="456.029" height="454.87" filterUnits="userSpaceOnUse" color-interpolation-filters="sRGB">
<feFlood flood-opacity="0" result="BackgroundImageFix"/>
<feColorMatrix in="SourceAlpha" type="matrix" values="0 0 0 0 0 0 0 0 0 0 0 0 0 0 0 0 0 0 127 0" result="hardAlpha"/>
<feOffset dy="4"/>
<feGaussianBlur stdDeviation="2"/>
<feComposite in2="hardAlpha" operator="out"/>
<feColorMatrix type="matrix" values="0 0 0 0 0.756863 0 0 0 0 0.658824 0 0 0 0 0.458824 0 0 0 1 0"/>
<feBlend mode="normal" in2="BackgroundImageFix" result="effect1_dropShadow_16_132"/>
<feBlend mode="normal" in="SourceGraphic" in2="effect1_dropShadow_16_132" result="shape"/>
</filter>
<filter id="filter1_f_16_132" x="437.505" y="112.814" width="57.6143" height="57.6144" filterUnits="userSpaceOnUse" color-interpolation-filters="sRGB">
<feFlood flood-opacity="0" result="BackgroundImageFix"/>
<feBlend mode="normal" in="SourceGraphic" in2="BackgroundImageFix" result="shape"/>
<feGaussianBlur stdDeviation="2" result="effect1_foregroundBlur_16_132"/>
</filter>
<filter id="filter2_f_16_132" x="250.352" y="397.939" width="34.3772" height="34.3773" filterUnits="userSpaceOnUse" color-interpolation-filters="sRGB">
<feFlood flood-opacity="0" result="BackgroundImageFix"/>
<feBlend mode="normal" in="SourceGraphic" in2="BackgroundImageFix" result="shape"/>
<feGaussianBlur stdDeviation="2" result="effect1_foregroundBlur_16_132"/>
</filter>
<linearGradient id="paint0_linear_16_132" x1="278.913" y1="11.519" x2="255.623" y2="459.783" gradientUnits="userSpaceOnUse">
<stop offset="0.214974" stop-color="#09090B"/>
<stop offset="1" stop-color="#291F32"/>
</linearGradient>
<linearGradient id="paint1_linear_16_132" x1="376" y1="422" x2="382.5" y2="599.5" gradientUnits="userSpaceOnUse">
<stop stop-color="#15121A"/>
<stop offset="0.794474" stop-color="#675980"/>
</linearGradient>
<linearGradient id="paint2_linear_16_132" x1="267.54" y1="401.939" x2="267.54" y2="428.316" gradientUnits="userSpaceOnUse">
<stop stop-color="#FFDA7C"/>
<stop offset="0.465017" stop-color="#FFDA7C"/>
<stop offset="1" stop-color="#D09742"/>
</linearGradient>
</defs>
</svg>
