<svg width="32" height="46" viewBox="0 0 32 46" fill="none" xmlns="http://www.w3.org/2000/svg">
<path d="M16 0C10.4883 0 6 4.48828 6 10V13H2C1.44922 13 1 13.4492 1 14V16H0V18H1V36C1 36.1094 1.01563 36.2148 1.05078 36.3164L1.92188 38.9219L0.105469 42.5508C0.0351558 42.6914 0 42.8438 0 43V45C0 45.5508 0.449219 46 1 46H6C6.55078 46 7 45.5508 7 45V36H7.46484L9.16797 38.5547C9.35156 38.832 9.66406 39 10 39H22C22.3359 39 22.6484 38.832 22.832 38.5547L24.5352 36H25V45C25 45.5508 25.4492 46 26 46H31C31.5508 46 32 45.5508 32 45V43C32 42.8438 31.9648 42.6914 31.8945 42.5508L30.0781 38.9219L30.9492 36.3164C30.9844 36.2148 31 36.1094 31 36V18H32V16H31V14C31 13.4492 30.5508 13 30 13H26V10C26 4.48828 21.5117 0 16 0ZM16 2C20.4297 2 24 5.57031 24 10V13H19V7C19 6.44922 18.5508 6 18 6H14C13.4492 6 13 6.44922 13 7V9H8.06641C8.55859 5.04688 11.9102 2 16 2ZM15 8H17V13H15V8ZM21 10C20.4492 10 20 10.4492 20 11C20 11.5508 20.4492 12 21 12C21.5508 12 22 11.5508 22 11C22 10.4492 21.5508 10 21 10ZM8 11H13V13H8V11ZM3 15H5V38H3.71875L3 35.8398V15ZM7 15H25V34H24.1719C24.1133 33.9922 24.0586 33.9844 24 33.9844V32H22V34H19V22C19 21.4492 18.5508 21 18 21H14C13.4492 21 13 21.4492 13 22V34H8.13672C8.08594 33.9922 8.03906 33.9883 7.98828 33.9883C7.94141 33.9883 7.89844 33.9922 7.85156 34H7V15ZM27 15H29V35.8398L28.2812 38H27V15ZM9 17V19H23V17H9ZM15 23H17V34H15V23ZM9.87109 36H22.1289L21.4648 37H10.5352L9.87109 36ZM3.61719 40H5V44H2V43.2344L3.61719 40ZM27 40H28.3828L30 43.2344V44H27V40Z" fill="white"/>
</svg>
